G04 start of page 2 for group 10 layer_idx 1 *
G04 Title: (unknown), bottom_copper *
G04 Creator: pcb-rnd 3.1.4-dev *
G04 CreationDate: 2024-02-06 06:50:57 UTC *
G04 For: STEM4ukraine *
G04 Format: Gerber/RS-274X *
G04 PCB-Dimensions: 393701 393701 *
G04 PCB-Coordinate-Origin: lower left *
%MOIN*%
%FSLAX25Y25*%
%LNBOTTOM_COPPER_NONE_10*%
%ADD35C,0.1220*%
%ADD34C,0.0394*%
%ADD33C,0.0362*%
%ADD32C,0.0906*%
%ADD31C,0.0315*%
%ADD30C,0.0787*%
%ADD29C,0.0709*%
%ADD28C,0.0827*%
%ADD27C,0.1535*%
%ADD26C,0.0640*%
%ADD25C,0.0800*%
%ADD24C,0.0100*%
%ADD23C,0.0001*%
G54D23*G36*
X320998Y143183D02*X321061Y143109D01*
X321361Y142853D01*
X321361Y142853D01*
X321696Y142648D01*
X321988Y142526D01*
X322060Y142497D01*
X322152Y142475D01*
X322442Y142405D01*
X322835Y142374D01*
X322933Y142382D01*
X323269D01*
X323319Y142262D01*
X323401Y142128D01*
X323503Y142008D01*
X323623Y141906D01*
X323757Y141823D01*
X323903Y141763D01*
X324056Y141726D01*
X324213Y141714D01*
X324252Y141717D01*
X325453D01*
Y133406D01*
X324901D01*
X324803Y133413D01*
X324411Y133382D01*
X324028Y133290D01*
X323665Y133140D01*
X323329Y132934D01*
X323030Y132679D01*
X322966Y132604D01*
X319168Y128806D01*
X319093Y128742D01*
X318837Y128442D01*
X318632Y128107D01*
X318481Y127743D01*
X318389Y127361D01*
X318389Y127361D01*
X318358Y126969D01*
X318366Y126871D01*
Y125676D01*
X318272Y125618D01*
X317745Y125168D01*
X317295Y124641D01*
X316934Y124051D01*
X316669Y123411D01*
X316507Y122738D01*
X316453Y122047D01*
X316507Y121357D01*
X316669Y120683D01*
X316934Y120044D01*
X317295Y119453D01*
X317745Y118926D01*
X318272Y118477D01*
X318862Y118115D01*
X319502Y117850D01*
X320176Y117688D01*
X320866Y117634D01*
X321557Y117688D01*
X322230Y117850D01*
X322831Y118098D01*
X312992Y108260D01*
Y151189D01*
X320998Y143183D01*
G37*
G36*
X377943Y1969D02*Y9871D01*
X377953Y9870D01*
X379550Y9996D01*
X381107Y10370D01*
X382587Y10983D01*
X383953Y11820D01*
X385171Y12860D01*
X386212Y14078D01*
X387049Y15444D01*
X387662Y16924D01*
X388036Y18482D01*
X388130Y20079D01*
X388036Y21676D01*
X387662Y23233D01*
X387049Y24713D01*
X386212Y26079D01*
X385171Y27297D01*
X383953Y28338D01*
X382587Y29175D01*
X381107Y29788D01*
X379550Y30162D01*
X377953Y30287D01*
X377943Y30287D01*
Y130480D01*
X381418D01*
X381496Y130474D01*
X381809Y130499D01*
X381810Y130499D01*
X382116Y130572D01*
X382407Y130693D01*
X382675Y130857D01*
X382915Y131062D01*
X383119Y131301D01*
X383284Y131570D01*
X383404Y131860D01*
X383478Y132166D01*
X383502Y132480D01*
X383496Y132559D01*
Y138307D01*
X383502Y138386D01*
X383478Y138700D01*
X383404Y139006D01*
X383284Y139297D01*
X383119Y139565D01*
X382915Y139804D01*
X382675Y140009D01*
X382407Y140173D01*
X382116Y140294D01*
X381810Y140367D01*
X381496Y140392D01*
X381418Y140386D01*
X377943D01*
Y161189D01*
X381418D01*
X381496Y161183D01*
X381809Y161207D01*
X381810Y161208D01*
X382116Y161281D01*
X382407Y161401D01*
X382675Y161566D01*
X382915Y161770D01*
X383119Y162010D01*
X383284Y162278D01*
X383404Y162569D01*
X383478Y162875D01*
X383502Y163189D01*
X383496Y163267D01*
Y169016D01*
X383502Y169094D01*
X383478Y169408D01*
X383404Y169714D01*
X383284Y170005D01*
X383119Y170274D01*
X382915Y170513D01*
X382675Y170718D01*
X382407Y170882D01*
X382116Y171002D01*
X381810Y171076D01*
X381496Y171101D01*
X381418Y171094D01*
X377943D01*
Y371497D01*
X377953Y371496D01*
X378963Y371575D01*
X379948Y371812D01*
X380884Y372200D01*
X381748Y372729D01*
X382518Y373387D01*
X383176Y374158D01*
X383706Y375021D01*
X384094Y375957D01*
X384330Y376943D01*
X384390Y377953D01*
X384330Y378963D01*
X384094Y379948D01*
X383706Y380884D01*
X383176Y381748D01*
X382518Y382518D01*
X381748Y383176D01*
X380884Y383706D01*
X379948Y384094D01*
X378963Y384330D01*
X377953Y384410D01*
X377943Y384409D01*
Y391732D01*
X391732D01*
Y43909D01*
X391636Y44141D01*
X391102Y45013D01*
X390437Y45791D01*
X389659Y46456D01*
X388787Y46991D01*
X387842Y47382D01*
X386847Y47621D01*
X385827Y47701D01*
X384807Y47621D01*
X383812Y47382D01*
X382867Y46991D01*
X381994Y46456D01*
X381216Y45791D01*
X380552Y45013D01*
X380017Y44141D01*
X379626Y43196D01*
X379387Y42201D01*
X379307Y41181D01*
X379387Y40161D01*
X379626Y39166D01*
X380017Y38221D01*
X380552Y37349D01*
X381216Y36571D01*
X381994Y35906D01*
X382867Y35372D01*
X383812Y34980D01*
X384807Y34741D01*
X385827Y34661D01*
X386847Y34741D01*
X387842Y34980D01*
X388787Y35372D01*
X389659Y35906D01*
X390437Y36571D01*
X391102Y37349D01*
X391636Y38221D01*
X391732Y38453D01*
Y1969D01*
X377943D01*
G37*
G36*
X376063Y171094D02*X375984Y171101D01*
X375671Y171076D01*
X375670Y171076D01*
X375364Y171002D01*
X375073Y170882D01*
X374805Y170718D01*
X374566Y170513D01*
X374361Y170274D01*
X374197Y170005D01*
X374076Y169714D01*
X374003Y169408D01*
X373978Y169094D01*
X373984Y169016D01*
Y168642D01*
X354035D01*
X353937Y168649D01*
X353839Y168642D01*
X330413D01*
X330315Y168649D01*
X329923Y168619D01*
X329540Y168527D01*
X329176Y168376D01*
X328841Y168171D01*
X328542Y167915D01*
X328478Y167840D01*
X326253Y165616D01*
X326179Y165552D01*
X325923Y165252D01*
X325717Y164917D01*
X325567Y164553D01*
X325475Y164171D01*
X325475Y164170D01*
X325444Y163779D01*
X325452Y163681D01*
Y160645D01*
X324252D01*
X324213Y160648D01*
X324056Y160636D01*
X324056Y160636D01*
X323903Y160599D01*
X323757Y160539D01*
X323623Y160457D01*
X323503Y160354D01*
X323401Y160235D01*
X323319Y160100D01*
X323259Y159955D01*
X323222Y159802D01*
X323210Y159645D01*
X323213Y159606D01*
Y154566D01*
X323210Y154527D01*
X323222Y154370D01*
X323222Y154370D01*
X323235Y154316D01*
X317067Y160484D01*
Y248177D01*
X319691Y250801D01*
X319765Y250865D01*
X320021Y251164D01*
X320021Y251164D01*
X320227Y251499D01*
X320377Y251863D01*
X320469Y252246D01*
X320500Y252638D01*
X320492Y252736D01*
Y254654D01*
X321339D01*
X321417Y254647D01*
X321731Y254672D01*
X321731Y254672D01*
X322037Y254746D01*
X322328Y254866D01*
X322597Y255031D01*
X322836Y255235D01*
X323040Y255474D01*
X323205Y255743D01*
X323325Y256034D01*
X323399Y256340D01*
X323423Y256654D01*
X323417Y256732D01*
Y268386D01*
X323423Y268465D01*
X323399Y268778D01*
X323325Y269085D01*
X323205Y269375D01*
X323040Y269644D01*
X322836Y269883D01*
X322597Y270088D01*
X322328Y270252D01*
X322037Y270373D01*
X321731Y270446D01*
X321417Y270471D01*
X321339Y270465D01*
X314606D01*
X314528Y270471D01*
X314214Y270446D01*
X314214Y270446D01*
X313908Y270373D01*
X313617Y270252D01*
X313348Y270088D01*
X313109Y269883D01*
X312992Y269746D01*
Y270866D01*
X316142D01*
X320079Y275197D01*
Y279921D01*
X316142Y284252D01*
X312992D01*
Y391732D01*
X377943D01*
Y384409D01*
X376943Y384330D01*
X375957Y384094D01*
X375021Y383706D01*
X374158Y383176D01*
X373387Y382518D01*
X372729Y381748D01*
X372200Y380884D01*
X371812Y379948D01*
X371575Y378963D01*
X371496Y377953D01*
X371575Y376943D01*
X371812Y375957D01*
X372200Y375021D01*
X372729Y374158D01*
X373387Y373387D01*
X374158Y372729D01*
X375021Y372200D01*
X375957Y371812D01*
X376943Y371575D01*
X377943Y371497D01*
Y171094D01*
X376063D01*
G37*
G36*
Y140386D02*X375984Y140392D01*
X375671Y140367D01*
X375670Y140367D01*
X375364Y140294D01*
X375073Y140173D01*
X374805Y140009D01*
X374566Y139804D01*
X374361Y139565D01*
X374197Y139297D01*
X374076Y139006D01*
X374003Y138700D01*
X373978Y138386D01*
X373984Y138307D01*
Y137795D01*
X357432D01*
X357282Y137831D01*
X356890Y137862D01*
X356497Y137831D01*
X356348Y137795D01*
X346555D01*
X346163Y137772D01*
X345780Y137680D01*
X345417Y137530D01*
X345081Y137324D01*
X344782Y137068D01*
X344707Y136980D01*
X344689Y136965D01*
X343543Y135819D01*
Y141717D01*
X344646D01*
X344685Y141714D01*
X344842Y141726D01*
X344842Y141726D01*
X344995Y141763D01*
X345140Y141823D01*
X345274Y141906D01*
X345394Y142008D01*
X345496Y142128D01*
X345579Y142262D01*
X345639Y142407D01*
X345676Y142560D01*
X345688Y142717D01*
X345685Y142756D01*
Y147796D01*
X345688Y147835D01*
X345676Y147992D01*
X345676Y147992D01*
X345639Y148145D01*
X345579Y148290D01*
X345496Y148425D01*
X345394Y148544D01*
X345274Y148647D01*
X345140Y148729D01*
X344995Y148789D01*
X344842Y148826D01*
X344685Y148838D01*
X344646Y148835D01*
X339452D01*
X339721Y148947D01*
X340057Y149152D01*
X340356Y149408D01*
X340420Y149483D01*
X342643Y151706D01*
X342718Y151770D01*
X342974Y152069D01*
X343179Y152405D01*
X343330Y152768D01*
X343422Y153151D01*
X343451Y153527D01*
X344646D01*
X344685Y153524D01*
X344842Y153536D01*
X344842Y153536D01*
X344995Y153573D01*
X345140Y153633D01*
X345274Y153716D01*
X345394Y153818D01*
X345496Y153938D01*
X345579Y154072D01*
X345639Y154217D01*
X345676Y154370D01*
X345688Y154527D01*
X345685Y154566D01*
Y159606D01*
X345688Y159645D01*
X345676Y159802D01*
X345676Y159802D01*
X345639Y159955D01*
X345579Y160100D01*
X345496Y160235D01*
X345394Y160354D01*
X345274Y160457D01*
X345140Y160539D01*
X344995Y160599D01*
X344842Y160636D01*
X344685Y160648D01*
X344646Y160645D01*
X337244D01*
X337205Y160648D01*
X337048Y160636D01*
X337048Y160636D01*
X336895Y160599D01*
X336749Y160539D01*
X336615Y160457D01*
X336496Y160354D01*
X336393Y160235D01*
X336311Y160100D01*
X336251Y159955D01*
X336214Y159802D01*
X336202Y159645D01*
X336205Y159606D01*
Y154566D01*
X336202Y154527D01*
X336214Y154370D01*
X336214Y154370D01*
X336251Y154217D01*
X336311Y154072D01*
X336393Y153938D01*
X336496Y153818D01*
X336615Y153716D01*
X336672Y153681D01*
X332226D01*
X332282Y153716D01*
X332402Y153818D01*
X332504Y153938D01*
X332587Y154072D01*
X332647Y154217D01*
X332683Y154370D01*
X332696Y154527D01*
X332693Y154566D01*
Y159606D01*
X332696Y159645D01*
X332684Y159802D01*
X332683Y159802D01*
X332647Y159955D01*
X332587Y160100D01*
X332504Y160235D01*
X332402Y160354D01*
X332282Y160457D01*
X332148Y160539D01*
X332003Y160599D01*
X331850Y160636D01*
X331693Y160648D01*
X331654Y160645D01*
X330452D01*
Y162743D01*
X331350Y163642D01*
X351437D01*
Y160645D01*
X350236D01*
X350197Y160648D01*
X350040Y160635D01*
X350040Y160635D01*
X349887Y160599D01*
X349742Y160538D01*
X349607Y160456D01*
X349488Y160354D01*
X349385Y160234D01*
X349303Y160100D01*
X349243Y159955D01*
X349206Y159802D01*
X349194Y159645D01*
X349197Y159605D01*
Y154566D01*
X349194Y154527D01*
X349206Y154370D01*
X349206Y154370D01*
X349243Y154217D01*
X349303Y154071D01*
X349385Y153937D01*
X349488Y153817D01*
X349607Y153715D01*
X349742Y153633D01*
X349887Y153573D01*
X350040Y153536D01*
X350197Y153524D01*
X350236Y153527D01*
X357638D01*
X357677Y153524D01*
X357834Y153536D01*
X357834Y153536D01*
X357987Y153573D01*
X358132Y153633D01*
X358267Y153715D01*
X358386Y153817D01*
X358489Y153937D01*
X358571Y154071D01*
X358631Y154217D01*
X358668Y154370D01*
X358680Y154527D01*
X358677Y154566D01*
Y159605D01*
X358680Y159645D01*
X358668Y159801D01*
X358668Y159802D01*
X358631Y159955D01*
X358571Y160100D01*
X358489Y160234D01*
X358386Y160354D01*
X358267Y160456D01*
X358132Y160538D01*
X357987Y160599D01*
X357834Y160635D01*
X357677Y160648D01*
X357638Y160645D01*
X356437D01*
Y163642D01*
X373984D01*
Y163267D01*
X373978Y163189D01*
X374003Y162875D01*
X374076Y162569D01*
X374197Y162278D01*
X374361Y162010D01*
X374566Y161770D01*
X374805Y161566D01*
X375073Y161401D01*
X375364Y161281D01*
X375670Y161208D01*
X375984Y161183D01*
X376063Y161189D01*
X377943D01*
Y140386D01*
X376063D01*
G37*
G36*
X330599Y114489D02*X330672Y114483D01*
X330904Y114211D01*
X331203Y113955D01*
X331539Y113750D01*
X331902Y113599D01*
X332285Y113507D01*
X332677Y113484D01*
X340500D01*
X339752Y112736D01*
X334744D01*
X334646Y112744D01*
X334253Y112713D01*
X333871Y112621D01*
X333507Y112471D01*
X333172Y112265D01*
X332872Y112009D01*
X332809Y111935D01*
X330979Y110105D01*
X330904Y110041D01*
X330648Y109742D01*
X330535Y109557D01*
Y114504D01*
X330599Y114489D01*
G37*
G36*
Y119489D02*X330672Y119483D01*
X330904Y119211D01*
X331203Y118955D01*
X331539Y118750D01*
X331902Y118599D01*
X332285Y118507D01*
X332677Y118484D01*
X339594D01*
X339594Y118484D01*
X332677D01*
X332285Y118461D01*
X331902Y118369D01*
X331539Y118219D01*
X331203Y118013D01*
X330904Y117757D01*
X330672Y117485D01*
X330599Y117480D01*
X330599Y117480D01*
X330535Y117464D01*
Y119504D01*
X330599Y119489D01*
G37*
G36*
X354912Y76374D02*X355573Y76648D01*
X356183Y77022D01*
X356726Y77486D01*
X357191Y78030D01*
X357300Y78209D01*
X361516D01*
X361614Y78201D01*
X362006Y78232D01*
X362006Y78232D01*
X362389Y78324D01*
X362753Y78474D01*
X363088Y78680D01*
X363387Y78935D01*
X363451Y79010D01*
X366004Y81563D01*
Y77807D01*
X361563Y73366D01*
X357204D01*
X357191Y73387D01*
X356726Y73931D01*
X356183Y74396D01*
X355573Y74769D01*
X354912Y75043D01*
X354243Y75204D01*
Y76214D01*
X354912Y76374D01*
G37*
G36*
X357071Y86102D02*X357110Y86099D01*
X357267Y86112D01*
X357267Y86112D01*
X357420Y86148D01*
X357566Y86209D01*
X357700Y86291D01*
X357820Y86393D01*
X357922Y86513D01*
X358004Y86647D01*
X358064Y86792D01*
X358101Y86945D01*
X358113Y87102D01*
X358110Y87142D01*
Y88209D01*
X360296D01*
X360394Y88201D01*
X360786Y88232D01*
X360786Y88232D01*
X361169Y88324D01*
X361532Y88474D01*
X361868Y88680D01*
X362167Y88935D01*
X362231Y89010D01*
X363051Y89831D01*
Y85681D01*
X360579Y83209D01*
X357300D01*
X357191Y83387D01*
X356726Y83931D01*
X356183Y84396D01*
X355573Y84769D01*
X354912Y85043D01*
X354243Y85204D01*
Y86102D01*
X357071D01*
G37*
G36*
X357677Y118484D02*X358069Y118507D01*
X358452Y118599D01*
X358816Y118750D01*
X359151Y118955D01*
X359450Y119211D01*
X359683Y119483D01*
X359755Y119489D01*
X359756Y119489D01*
X359803Y119500D01*
Y93654D01*
X359358Y93209D01*
X358110D01*
Y94276D01*
X358113Y94315D01*
X358101Y94472D01*
X358101Y94472D01*
X358064Y94625D01*
X358004Y94770D01*
X357922Y94905D01*
X357820Y95024D01*
X357700Y95126D01*
X357566Y95209D01*
X357420Y95269D01*
X357267Y95306D01*
X357110Y95318D01*
X357071Y95315D01*
X354243D01*
Y118484D01*
X357677D01*
G37*
G36*
X354243Y1969D02*Y12645D01*
X354252Y12656D01*
X354823Y11988D01*
X355557Y11361D01*
X356380Y10856D01*
X357272Y10487D01*
X358211Y10262D01*
X359173Y10186D01*
X360136Y10262D01*
X361075Y10487D01*
X361967Y10856D01*
X362790Y11361D01*
X363524Y11988D01*
X364151Y12722D01*
X364655Y13545D01*
X365025Y14437D01*
X365250Y15376D01*
X365307Y16339D01*
X365250Y17301D01*
X365025Y18240D01*
X364655Y19132D01*
X364151Y19955D01*
X363524Y20689D01*
X362790Y21316D01*
X361967Y21821D01*
X361075Y22190D01*
X360136Y22416D01*
X359173Y22491D01*
X358211Y22416D01*
X357272Y22190D01*
X356380Y21821D01*
X355557Y21316D01*
X354823Y20689D01*
X354252Y20021D01*
X354243Y20032D01*
Y25265D01*
X354823Y24586D01*
X355557Y23959D01*
X356380Y23455D01*
X357272Y23085D01*
X358211Y22860D01*
X359173Y22784D01*
X360136Y22860D01*
X361075Y23085D01*
X361967Y23455D01*
X362790Y23959D01*
X363524Y24586D01*
X364151Y25320D01*
X364655Y26144D01*
X365025Y27036D01*
X365250Y27974D01*
X365307Y28937D01*
X365250Y29900D01*
X365025Y30838D01*
X364655Y31730D01*
X364151Y32554D01*
X363524Y33288D01*
X362790Y33915D01*
X361967Y34419D01*
X361075Y34789D01*
X360136Y35014D01*
X359173Y35090D01*
X358211Y35014D01*
X357272Y34789D01*
X356380Y34419D01*
X355557Y33915D01*
X354823Y33288D01*
X354243Y32609D01*
Y66214D01*
X354912Y66374D01*
X355573Y66648D01*
X356183Y67022D01*
X356726Y67486D01*
X357191Y68030D01*
X357397Y68366D01*
X362500D01*
X362598Y68358D01*
X362991Y68389D01*
X362991Y68389D01*
X363373Y68481D01*
X363737Y68632D01*
X364072Y68837D01*
X364372Y69093D01*
X364436Y69168D01*
X370202Y74935D01*
X370277Y74998D01*
X370533Y75298D01*
X370738Y75633D01*
X370889Y75997D01*
X370981Y76379D01*
X371012Y76772D01*
X371004Y76870D01*
Y132795D01*
X373984D01*
Y132559D01*
X373978Y132480D01*
X374003Y132166D01*
X374076Y131860D01*
X374197Y131570D01*
X374361Y131301D01*
X374566Y131062D01*
X374805Y130857D01*
X375073Y130693D01*
X375364Y130572D01*
X375670Y130499D01*
X375984Y130474D01*
X376063Y130480D01*
X377943D01*
Y30287D01*
X376356Y30162D01*
X374798Y29788D01*
X373318Y29175D01*
X371952Y28338D01*
X370734Y27297D01*
X369694Y26079D01*
X368857Y24713D01*
X368244Y23233D01*
X367870Y21676D01*
X367744Y20079D01*
X367870Y18482D01*
X368244Y16924D01*
X368857Y15444D01*
X369694Y14078D01*
X370734Y12860D01*
X371952Y11820D01*
X373318Y10983D01*
X374798Y10370D01*
X376356Y9996D01*
X377943Y9871D01*
Y1969D01*
X354243D01*
G37*
G36*
X343504Y76151D02*X344217Y76207D01*
X344912Y76374D01*
X345573Y76648D01*
X346183Y77022D01*
X346726Y77486D01*
X347191Y78030D01*
X347565Y78640D01*
X347838Y79300D01*
X348005Y79996D01*
X348047Y80709D01*
X348005Y81422D01*
X347838Y82117D01*
X347565Y82778D01*
X347191Y83387D01*
X346726Y83931D01*
X346183Y84396D01*
X345573Y84769D01*
X344912Y85043D01*
X344217Y85210D01*
X343504Y85266D01*
X343497Y85265D01*
Y109410D01*
X348057Y113970D01*
X348131Y114034D01*
X348387Y114333D01*
X348387Y114333D01*
X348593Y114669D01*
X348743Y115032D01*
X348835Y115415D01*
X348866Y115807D01*
X348858Y115905D01*
Y118921D01*
X349137Y118750D01*
X349501Y118599D01*
X349883Y118507D01*
X349883D01*
X350276Y118477D01*
X350374Y118484D01*
X354243D01*
Y95315D01*
X349937D01*
X349898Y95318D01*
X349741Y95306D01*
X349741Y95306D01*
X349588Y95269D01*
X349442Y95209D01*
X349308Y95126D01*
X349188Y95024D01*
X349086Y94905D01*
X349004Y94770D01*
X348944Y94625D01*
X348907Y94472D01*
X348895Y94315D01*
X348898Y94276D01*
Y87142D01*
X348895Y87102D01*
X348907Y86946D01*
X348907Y86945D01*
X348944Y86792D01*
X349004Y86647D01*
X349086Y86513D01*
X349188Y86393D01*
X349308Y86291D01*
X349442Y86209D01*
X349588Y86148D01*
X349741Y86112D01*
X349898Y86099D01*
X349937Y86102D01*
X354243D01*
Y85204D01*
X354217Y85210D01*
X353504Y85266D01*
X352791Y85210D01*
X352096Y85043D01*
X351435Y84769D01*
X350825Y84396D01*
X350281Y83931D01*
X349817Y83387D01*
X349443Y82778D01*
X349170Y82117D01*
X349003Y81422D01*
X348947Y80709D01*
X349003Y79996D01*
X349170Y79300D01*
X349443Y78640D01*
X349817Y78030D01*
X350281Y77486D01*
X350825Y77022D01*
X351435Y76648D01*
X352096Y76374D01*
X352791Y76207D01*
X353504Y76151D01*
X354217Y76207D01*
X354243Y76214D01*
Y75204D01*
X354217Y75210D01*
X353504Y75266D01*
X352791Y75210D01*
X352096Y75043D01*
X351435Y74769D01*
X350825Y74396D01*
X350281Y73931D01*
X349817Y73387D01*
X349443Y72778D01*
X349170Y72117D01*
X349003Y71422D01*
X348947Y70709D01*
X349003Y69996D01*
X349170Y69300D01*
X349443Y68640D01*
X349817Y68030D01*
X350281Y67486D01*
X350825Y67022D01*
X351435Y66648D01*
X352096Y66374D01*
X352791Y66207D01*
X353504Y66151D01*
X354217Y66207D01*
X354243Y66214D01*
Y32609D01*
X354196Y32554D01*
X353691Y31730D01*
X353322Y30838D01*
X353096Y29900D01*
X353020Y28937D01*
X353096Y27974D01*
X353322Y27036D01*
X353691Y26144D01*
X354196Y25320D01*
X354243Y25265D01*
Y20032D01*
X353681Y20689D01*
X352947Y21316D01*
X352124Y21821D01*
X351232Y22190D01*
X350293Y22416D01*
X349331Y22491D01*
X348368Y22416D01*
X347429Y22190D01*
X346537Y21821D01*
X345714Y21316D01*
X344980Y20689D01*
X344353Y19955D01*
X343849Y19132D01*
X343497Y18283D01*
Y66152D01*
X343504Y66151D01*
X344217Y66207D01*
X344912Y66374D01*
X345573Y66648D01*
X346183Y67022D01*
X346726Y67486D01*
X347191Y68030D01*
X347565Y68640D01*
X347838Y69300D01*
X348005Y69996D01*
X348047Y70709D01*
X348005Y71422D01*
X347838Y72117D01*
X347565Y72778D01*
X347191Y73387D01*
X346726Y73931D01*
X346183Y74396D01*
X345573Y74769D01*
X344912Y75043D01*
X344217Y75210D01*
X343504Y75266D01*
X343497Y75265D01*
Y76152D01*
X343504Y76151D01*
G37*
G36*
X343497Y1969D02*Y14394D01*
X343849Y13545D01*
X344353Y12722D01*
X344980Y11988D01*
X345714Y11361D01*
X346537Y10856D01*
X347429Y10487D01*
X348368Y10262D01*
X349331Y10186D01*
X350293Y10262D01*
X351232Y10487D01*
X352124Y10856D01*
X352947Y11361D01*
X353681Y11988D01*
X354243Y12645D01*
Y1969D01*
X343497D01*
G37*
G36*
X342791Y85210D02*X342096Y85043D01*
X341435Y84769D01*
X340825Y84396D01*
X340281Y83931D01*
X339817Y83387D01*
X339707Y83209D01*
X339618D01*
X335177Y87650D01*
Y107232D01*
X335681Y107736D01*
X340690D01*
X340787Y107729D01*
X341179Y107759D01*
X341180Y107759D01*
X341562Y107851D01*
X341926Y108002D01*
X342261Y108207D01*
X342561Y108463D01*
X342624Y108538D01*
X343497Y109410D01*
Y85265D01*
X342791Y85210D01*
G37*
G36*
X330535Y1969D02*Y9871D01*
X330551Y9870D01*
X332148Y9996D01*
X333706Y10370D01*
X335186Y10983D01*
X336552Y11820D01*
X337770Y12860D01*
X338810Y14078D01*
X339647Y15444D01*
X340260Y16924D01*
X340634Y18482D01*
X340728Y20079D01*
X340634Y21676D01*
X340260Y23233D01*
X339647Y24713D01*
X338810Y26079D01*
X337770Y27297D01*
X336552Y28338D01*
X335186Y29175D01*
X333706Y29788D01*
X332148Y30162D01*
X330551Y30287D01*
X330535Y30286D01*
Y85324D01*
X330648Y85140D01*
X330904Y84841D01*
X330979Y84777D01*
X336746Y79010D01*
X336809Y78935D01*
X337109Y78680D01*
X337109Y78680D01*
X337444Y78474D01*
X337657Y78386D01*
X337808Y78324D01*
X337900Y78302D01*
X338190Y78232D01*
X338583Y78201D01*
X338681Y78209D01*
X339707D01*
X339817Y78030D01*
X340281Y77486D01*
X340825Y77022D01*
X341435Y76648D01*
X342096Y76374D01*
X342791Y76207D01*
X343497Y76152D01*
Y75265D01*
X342791Y75210D01*
X342096Y75043D01*
X341435Y74769D01*
X340825Y74396D01*
X340281Y73931D01*
X339817Y73387D01*
X339443Y72778D01*
X339170Y72117D01*
X339003Y71422D01*
X338947Y70709D01*
X339003Y69996D01*
X339170Y69300D01*
X339443Y68640D01*
X339817Y68030D01*
X340281Y67486D01*
X340825Y67022D01*
X341435Y66648D01*
X342096Y66374D01*
X342791Y66207D01*
X343497Y66152D01*
Y18283D01*
X343479Y18240D01*
X343254Y17301D01*
X343178Y16339D01*
X343254Y15376D01*
X343479Y14437D01*
X343497Y14394D01*
Y1969D01*
X330535D01*
G37*
G36*
X312992D02*Y101189D01*
X329651Y117848D01*
X329726Y117912D01*
X329982Y118211D01*
X330187Y118547D01*
X330338Y118910D01*
X330430Y119293D01*
X330449Y119538D01*
X330449Y119537D01*
X330522Y119507D01*
X330535Y119504D01*
Y117464D01*
X330522Y117461D01*
X330449Y117431D01*
X330382Y117390D01*
X330323Y117339D01*
X330271Y117279D01*
X330230Y117212D01*
X330200Y117139D01*
X330182Y117063D01*
X330176Y116984D01*
X330177Y116965D01*
Y116082D01*
X330169Y115984D01*
X330177Y115886D01*
Y115004D01*
X330176Y114984D01*
X330182Y114906D01*
X330182Y114906D01*
X330200Y114829D01*
X330230Y114757D01*
X330271Y114689D01*
X330323Y114630D01*
X330382Y114578D01*
X330449Y114537D01*
X330522Y114507D01*
X330535Y114504D01*
Y109557D01*
X330443Y109406D01*
X330292Y109043D01*
X330200Y108660D01*
X330200Y108660D01*
X330169Y108268D01*
X330177Y108170D01*
Y96931D01*
X330114Y97083D01*
X329752Y97673D01*
X329302Y98200D01*
X328823Y98610D01*
X328897Y98616D01*
X328898Y98616D01*
X329051Y98652D01*
X329196Y98713D01*
X329330Y98795D01*
X329450Y98897D01*
X329552Y99017D01*
X329634Y99151D01*
X329695Y99296D01*
X329731Y99450D01*
X329744Y99606D01*
X329741Y99646D01*
Y107047D01*
X329744Y107086D01*
X329731Y107243D01*
X329731Y107243D01*
X329695Y107396D01*
X329634Y107542D01*
X329552Y107676D01*
X329450Y107796D01*
X329330Y107898D01*
X329196Y107980D01*
X329051Y108040D01*
X328898Y108077D01*
X328741Y108090D01*
X328701Y108086D01*
X323662D01*
X323623Y108090D01*
X323466Y108077D01*
X323466Y108077D01*
X323313Y108040D01*
X323167Y107980D01*
X323033Y107898D01*
X322913Y107796D01*
X322811Y107676D01*
X322729Y107542D01*
X322669Y107396D01*
X322632Y107243D01*
X322620Y107086D01*
X322623Y107047D01*
Y99646D01*
X322620Y99606D01*
X322632Y99450D01*
X322632Y99450D01*
X322669Y99296D01*
X322729Y99151D01*
X322811Y99017D01*
X322913Y98897D01*
X323033Y98795D01*
X323167Y98713D01*
X323313Y98652D01*
X323466Y98616D01*
X323540Y98610D01*
X323061Y98200D01*
X322611Y97673D01*
X322249Y97083D01*
X321984Y96443D01*
X321822Y95770D01*
X321768Y95079D01*
X321822Y94389D01*
X321984Y93715D01*
X322249Y93076D01*
X322611Y92485D01*
X323061Y91958D01*
X323587Y91509D01*
X324178Y91147D01*
X324818Y90882D01*
X325491Y90720D01*
X326182Y90666D01*
X326872Y90720D01*
X327545Y90882D01*
X328185Y91147D01*
X328776Y91509D01*
X329302Y91958D01*
X329752Y92485D01*
X330114Y93076D01*
X330177Y93228D01*
Y86712D01*
X330169Y86614D01*
X330200Y86222D01*
Y86222D01*
X330292Y85839D01*
X330443Y85476D01*
X330535Y85324D01*
Y30286D01*
X328954Y30162D01*
X327397Y29788D01*
X325917Y29175D01*
X324551Y28338D01*
X323333Y27297D01*
X322292Y26079D01*
X321455Y24713D01*
X320842Y23233D01*
X320468Y21676D01*
X320343Y20079D01*
X320468Y18482D01*
X320842Y16924D01*
X321455Y15444D01*
X322292Y14078D01*
X323333Y12860D01*
X324551Y11820D01*
X325917Y10983D01*
X327397Y10370D01*
X328954Y9996D01*
X330535Y9871D01*
Y1969D01*
X312992D01*
G37*
G36*
X312972Y269723D02*X312836Y269883D01*
X312597Y270088D01*
X312328Y270252D01*
X312037Y270373D01*
X311731Y270446D01*
X311417Y270471D01*
X311339Y270465D01*
X304606D01*
X304528Y270471D01*
X304214Y270446D01*
X304214Y270446D01*
X303908Y270373D01*
X303617Y270252D01*
X303348Y270088D01*
X303109Y269883D01*
X302905Y269644D01*
X302740Y269375D01*
X302620Y269085D01*
X302546Y268778D01*
X302521Y268465D01*
X302528Y268386D01*
Y256732D01*
X302521Y256654D01*
X302546Y256340D01*
X302620Y256034D01*
X302740Y255743D01*
X302905Y255474D01*
X303109Y255235D01*
X303348Y255031D01*
X303617Y254866D01*
X303908Y254746D01*
X304214Y254672D01*
X304528Y254647D01*
X304606Y254654D01*
X305492D01*
Y252736D01*
X305484Y252638D01*
X305515Y252246D01*
X305585Y251955D01*
X305607Y251863D01*
X305670Y251712D01*
X305758Y251499D01*
X305963Y251164D01*
X305963Y251164D01*
X306219Y250865D01*
X306294Y250801D01*
X308917Y248177D01*
Y156397D01*
X308910Y156299D01*
X308940Y155907D01*
Y155907D01*
X309032Y155524D01*
X309183Y155161D01*
X309389Y154825D01*
X309644Y154526D01*
X309719Y154462D01*
X312992Y151189D01*
Y108260D01*
X234398Y29665D01*
X207374D01*
Y391732D01*
X312992D01*
Y284252D01*
X309843D01*
X305906Y279921D01*
Y275197D01*
X309843Y270866D01*
X312992D01*
Y269746D01*
X312972Y269723D01*
G37*
G36*
X207374Y1969D02*Y24665D01*
X235335D01*
X235433Y24658D01*
X235825Y24689D01*
X235825Y24689D01*
X236208Y24780D01*
X236572Y24931D01*
X236907Y25137D01*
X237206Y25392D01*
X237270Y25467D01*
X312992Y101189D01*
Y1969D01*
X207374D01*
G37*
G36*
X15738D02*Y21165D01*
X18110D01*
X19052Y21221D01*
X19970Y21441D01*
X20843Y21803D01*
X21648Y22296D01*
X22366Y22910D01*
X22979Y23628D01*
X23473Y24433D01*
X23834Y25306D01*
X24055Y26224D01*
X24129Y27165D01*
X24055Y28107D01*
X23834Y29025D01*
X23473Y29898D01*
X22979Y30703D01*
X22366Y31421D01*
X21648Y32034D01*
X20843Y32528D01*
X19970Y32889D01*
X19052Y33110D01*
X18110Y33165D01*
X15738D01*
Y371497D01*
X15748Y371496D01*
X16758Y371575D01*
X17743Y371812D01*
X18679Y372200D01*
X19543Y372729D01*
X20314Y373387D01*
X20972Y374158D01*
X21501Y375021D01*
X21889Y375957D01*
X22125Y376943D01*
X22185Y377953D01*
X22125Y378963D01*
X21889Y379948D01*
X21501Y380884D01*
X20972Y381748D01*
X20314Y382518D01*
X19543Y383176D01*
X18679Y383706D01*
X17743Y384094D01*
X16758Y384330D01*
X15748Y384410D01*
X15738Y384409D01*
Y391732D01*
X207374D01*
Y29665D01*
X49453D01*
Y31067D01*
X49460Y31165D01*
X49430Y31558D01*
X49338Y31940D01*
X49187Y32304D01*
X48981Y32639D01*
X48726Y32939D01*
X48427Y33194D01*
X48091Y33400D01*
X47728Y33550D01*
X47345Y33642D01*
X46953Y33673D01*
X46855Y33665D01*
X33851D01*
X33753Y33673D01*
X33361Y33642D01*
X33360Y33642D01*
X32978Y33550D01*
X32614Y33400D01*
X32279Y33194D01*
X31979Y32939D01*
X31724Y32639D01*
X31518Y32304D01*
X31368Y31940D01*
X31276Y31558D01*
X31245Y31165D01*
X31253Y31067D01*
Y23263D01*
X31245Y23165D01*
X31276Y22773D01*
X31368Y22390D01*
X31518Y22027D01*
X31724Y21691D01*
X31979Y21392D01*
X32279Y21137D01*
X32614Y20931D01*
X32978Y20780D01*
X33360Y20689D01*
X33753Y20658D01*
X33851Y20665D01*
X46855D01*
X46953Y20658D01*
X47345Y20688D01*
X47345Y20689D01*
X47728Y20780D01*
X48091Y20931D01*
X48427Y21137D01*
X48726Y21392D01*
X48981Y21691D01*
X49187Y22027D01*
X49338Y22390D01*
X49430Y22773D01*
X49460Y23165D01*
X49453Y23263D01*
Y24665D01*
X207374D01*
Y1969D01*
X15738D01*
G37*
G36*
X1969D02*Y391732D01*
X15738D01*
Y384409D01*
X14738Y384330D01*
X13753Y384094D01*
X12817Y383706D01*
X11953Y383176D01*
X11182Y382518D01*
X10524Y381748D01*
X9995Y380884D01*
X9607Y379948D01*
X9371Y378963D01*
X9291Y377953D01*
X9371Y376943D01*
X9607Y375957D01*
X9995Y375021D01*
X10524Y374158D01*
X11182Y373387D01*
X11953Y372729D01*
X12817Y372200D01*
X13753Y371812D01*
X14738Y371575D01*
X15738Y371497D01*
Y33165D01*
X12953D01*
X12011Y33110D01*
X11093Y32889D01*
X10220Y32528D01*
X9415Y32034D01*
X8697Y31421D01*
X8084Y30703D01*
X7590Y29898D01*
X7229Y29025D01*
X7008Y28107D01*
X6934Y27165D01*
X7008Y26224D01*
X7229Y25306D01*
X7590Y24433D01*
X8084Y23628D01*
X8697Y22910D01*
X9415Y22296D01*
X10220Y21803D01*
X11093Y21441D01*
X12011Y21221D01*
X12953Y21165D01*
X15738D01*
Y1969D01*
X1969D01*
G37*
G54D24*X332677Y130906D02*X324803D01*
X332677Y120984D02*X339882D01*
X341043Y122146D01*
X327953Y124409D02*X329528Y125984D01*
X328740Y125197D01*
X332677Y125984D02*X329528D01*
X332677Y115984D02*X340630D01*
X342224Y117579D01*
X340630Y115984D02*X343799Y119154D01*
X320866Y126969D02*Y122047D01*
X327953Y119685D02*Y124409D01*
X340787Y110236D02*X346358Y115807D01*
X332677Y86614D02*X338583Y80709D01*
X332677Y86614D02*Y108268D01*
X340787Y110236D02*X334646D01*
X332677Y108268D02*X334646Y110236D01*
X326182Y103346D02*Y95079D01*
X343799Y119154D02*Y132539D01*
X346358Y115807D02*Y129390D01*
X341043Y122146D02*Y145178D01*
X338583Y151181D02*X322835D01*
X314567Y249213D02*Y159449D01*
X317992Y252638D02*Y262559D01*
X314567Y249213D02*X317992Y252638D01*
X324803Y130906D02*X320866Y126969D01*
X327953Y145275D02*Y130906D01*
Y144882D02*X322835D01*
X307992Y252638D02*Y262559D01*
X311417Y249213D02*X307992Y252638D01*
X311417Y249213D02*Y156299D01*
X322835Y144882D01*
X338583Y80709D02*X343504D01*
X353504Y90709D02*X360394D01*
X361614Y80709D02*X365551Y84646D01*
X353504Y80709D02*X361614D01*
X362598Y70866D02*X353661D01*
X327953Y119685D02*X235433Y27165D01*
X360394Y90709D02*X362303Y92618D01*
X368504Y76772D02*X362598Y70866D01*
X353661D02*X353504Y70709D01*
X37795Y27165D02*X235433D01*
X343799Y132539D02*X346457Y135197D01*
X379134Y166142D02*X330315D01*
X341043Y145178D02*X340945Y145276D01*
Y157087D02*Y153543D01*
X338583Y151181D01*
X353937Y157086D02*Y166142D01*
X347953Y130984D02*X346358Y129390D01*
X356890Y135354D02*X356831Y135295D01*
X378602D02*X378937Y135630D01*
X357677Y130984D02*X347953D01*
X378602Y135295D02*X346555D01*
X350492Y128406D02*X363287D01*
X327952Y157086D02*X327953Y157085D01*
X322835Y151181D02*X314567Y159449D01*
X322835Y144882D02*X317323Y150394D01*
X327952Y157086D02*Y163779D01*
X330315Y166142D01*
X360787Y125984D02*X357677D01*
X362303Y124469D02*X360787Y125984D01*
X363287Y128406D02*X365551Y126142D01*
Y84646D01*
X368504Y76772D02*Y135039D01*
X362303Y124469D02*Y92618D01*
X357677Y120984D02*X350276D01*
X349114Y122106D02*Y127028D01*
X350492Y128406D01*
X350276Y120984D02*X349114Y122146D01*
G54D25*X18110Y27165D02*X12953D01*
G54D23*G36*
X46953Y23165D02*X33753D01*
Y31165D01*
X46953D01*
Y23165D01*
G37*
G36*
X337205Y159645D02*Y154527D01*
X344685D01*
Y159645D01*
X337205D01*
G37*
G36*
X350197Y159645D02*Y154527D01*
X357677D01*
Y159645D01*
X350197D01*
G37*
G36*
X375984Y163189D02*Y169094D01*
X381496D01*
Y163189D01*
X375984D01*
G37*
G36*
X330677Y131984D02*X339177D01*
Y129984D01*
X330677D01*
Y131984D01*
G37*
G36*
X337205Y147835D02*Y142717D01*
X344685D01*
Y147835D01*
X337205D01*
G37*
G36*
X350197Y147835D02*Y142717D01*
X357677D01*
Y147835D01*
X350197D01*
G37*
G36*
X375984Y132480D02*Y138386D01*
X381496D01*
Y132480D01*
X375984D01*
G37*
G36*
X330677Y126984D02*X339177D01*
Y124984D01*
X330677D01*
Y126984D01*
G37*
G36*
X359677Y124984D02*X351177D01*
Y126984D01*
X359677D01*
Y124984D01*
G37*
G36*
Y129984D02*X351177D01*
Y131984D01*
X359677D01*
Y129984D01*
G37*
G54D26*X320866Y122047D03*
G54D23*G36*
X330677Y121984D02*X339177D01*
Y119984D01*
X330677D01*
Y121984D01*
G37*
G36*
X359677Y119984D02*X351177D01*
Y121984D01*
X359677D01*
Y119984D01*
G37*
G36*
X331693Y154527D02*Y159645D01*
X324213D01*
Y154527D01*
X331693D01*
G37*
G36*
Y142717D02*Y147835D01*
X324213D01*
Y142717D01*
X331693D01*
G37*
G54D26*X326182Y95079D03*
G54D23*G36*
X330677Y116984D02*X339177D01*
Y114984D01*
X330677D01*
Y116984D01*
G37*
G36*
X359677Y114984D02*X351177D01*
Y116984D01*
X359677D01*
Y114984D01*
G37*
G36*
X335433Y99606D02*X340551D01*
Y107086D01*
X335433D01*
Y99606D01*
G37*
G36*
X323623D02*X328741D01*
Y107086D01*
X323623D01*
Y99606D01*
G37*
G54D27*X377953Y20079D03*
X330551D03*
G54D28*X349331Y28937D03*
Y16339D03*
X359173D03*
Y28937D03*
G54D23*G36*
X357110Y87102D02*X349898D01*
Y94315D01*
X357110D01*
Y87102D01*
G37*
G54D29*X353504Y80709D03*
X343504D03*
X353504Y70709D03*
X343504D03*
Y90709D03*
G54D23*G36*
X311417Y256654D02*X304528D01*
Y268465D01*
X311417D01*
Y256654D01*
G37*
G36*
X321417D02*X314528D01*
Y268465D01*
X321417D01*
Y256654D01*
G37*
G36*
X389827Y47181D02*X381827D01*
Y55181D01*
X389827D01*
Y47181D01*
G37*
G54D25*X385827Y41181D03*
G54D30*G54D31*G54D32*G54D33*G54D34*G54D35*G54D34*M02*
