G04 start of page 2 for group 12 layer_idx 7 *
G04 Title: (unknown), bottom_silk *
G04 Creator: pcb-rnd 3.1.4-dev *
G04 CreationDate: 2024-02-06 06:50:57 UTC *
G04 For: STEM4ukraine *
G04 Format: Gerber/RS-274X *
G04 PCB-Dimensions: 393701 393701 *
G04 PCB-Coordinate-Origin: lower left *
%MOIN*%
%FSLAX25Y25*%
%LNBOTTOM_SILK_NONE_12*%
%ADD71C,0.0150*%
%ADD70C,0.0120*%
%ADD69C,0.0070*%
%ADD68C,0.0088*%
%ADD67C,0.0175*%
%ADD66C,0.0080*%
%ADD65C,0.0100*%
%ADD64C,0.0200*%
%ADD63C,0.0300*%
%ADD62C,0.0001*%
G54D62*G36*
X201972Y184486D02*X204998Y186232D01*
X207468Y188703D01*
X209215Y191729D01*
X210119Y195103D01*
Y198597D01*
X209215Y201972D01*
X207468Y204998D01*
X204998Y207468D01*
X201972Y209215D01*
X198597Y210119D01*
X195103D01*
X191729Y209215D01*
X188703Y207468D01*
X186232Y204998D01*
X184486Y201972D01*
X183581Y198597D01*
Y195103D01*
X184486Y191729D01*
X186232Y188703D01*
X188703Y186232D01*
X191729Y184486D01*
X183380Y164331D01*
X178562Y166413D01*
X168073Y159347D01*
X158850Y168732D01*
X166099Y179096D01*
X162396Y188260D01*
X149983Y190680D01*
X150098Y203838D01*
X162551Y206041D01*
X166413Y215139D01*
X159347Y225628D01*
X168732Y234850D01*
X179096Y227602D01*
X188260Y231305D01*
X190680Y243718D01*
X203838Y243603D01*
X206041Y231150D01*
X215139Y227288D01*
X225628Y234354D01*
X234850Y224969D01*
X227602Y214605D01*
X231305Y205441D01*
X243718Y203021D01*
X243603Y189863D01*
X231150Y187660D01*
X227288Y178562D01*
X234354Y168073D01*
X224969Y158850D01*
X214605Y166099D01*
X210320Y164331D01*
X201972Y184486D01*
G37*
G54D63*X146409Y34307D02*X143409Y31307D01*
X146409Y40307D02*X143409Y43307D01*
X134409D02*X143409D01*
X134409Y31307D02*Y58307D01*
X143409Y31307D02*X134409D01*
X146409Y40307D02*Y34307D01*
G54D64*X330551Y43504D02*X377953D01*
X330551D02*Y29016D01*
Y11142D02*Y1772D01*
G54D65*X390827Y56181D02*Y36181D01*
Y56181D02*X380827D01*
Y36181D02*X390827D01*
X380827D02*Y56181D01*
X390827Y46181D02*X380827D01*
Y56181D02*Y46181D01*
G54D63*X152409Y40307D02*X155409Y43307D01*
X152409Y40307D02*Y31307D01*
X179409Y43307D02*X170409D01*
X182409Y40307D02*X179409Y43307D01*
X182409D02*Y31307D01*
X212409Y34307D02*X215409Y31307D01*
Y43307D02*X212409Y40307D01*
Y34307D02*Y40307D01*
X203409Y37307D02*X191409D01*
X251409Y31307D02*X248409Y34307D01*
X251409Y43307D02*X248409Y40307D01*
X242409Y34307D02*X239409Y31307D01*
X242409Y40307D02*X239409Y43307D01*
X242409Y40307D02*Y34307D01*
X248409Y40307D02*Y34307D01*
X260409Y43307D02*Y19307D01*
X215409Y43307D02*X224409D01*
X239409D02*X230409D01*
X260409D02*X251409D01*
X224409Y31307D02*X215409D01*
X239409D02*X230409D01*
X251409D02*X260409D01*
X224409Y58307D02*Y31307D01*
X161409Y43307D02*X155409D01*
X164409Y40307D02*X161409Y43307D01*
X164409D02*Y31307D01*
G54D65*X358504Y95709D02*Y65709D01*
Y95709D02*X338504D01*
Y65709D02*X358504D01*
X338504D02*Y95709D01*
G54D64*X377953Y43504D02*Y29016D01*
Y1772D02*X330551D01*
X377953Y11142D02*Y1772D01*
G54D65*X329177Y113484D02*Y133484D01*
G54D66*X334449Y107086D02*X329725D01*
X334449Y99606D02*X329725D01*
G54D65*X306480Y281900D02*Y273218D01*
G54D66*X344685Y148819D02*Y153543D01*
X337205Y148819D02*Y153543D01*
X324213D02*Y148819D01*
X331693Y153543D02*Y148819D01*
G54D65*X361177Y133484D02*X329177D01*
G54D66*X357677Y148819D02*Y153543D01*
X350197Y148819D02*Y153543D01*
G54D65*X384646Y138976D02*Y162598D01*
X372835Y138976D02*Y162598D01*
X384646D02*X372835D01*
X384646Y138976D02*X372835D01*
X361177Y133484D02*Y113484D01*
X329177D02*X342677D01*
X347677D02*X361177D01*
X52756Y27165D02*G75*G02X3150Y27165I-24803J0D01*G01*
G75*G02X52756Y27165I24803J0D01*G01*
X342677Y113484D02*G75*G02X347677Y113484I2500J0D01*G01*
X306480Y281900D02*G75*G02X319504Y273218I6512J-4341D01*G01*
X319504Y273218D02*G75*G02X306480Y273218I-6512J4341D01*G01*
G54D63*X137409Y61307D02*G75*G02X131409Y61307I-3000J0D01*G01*
G75*G02X137409Y61307I3000J0D01*G01*
X227409D02*G75*G02X221409Y61307I-3000J0D01*G01*
G75*G02X227409Y61307I3000J0D01*G01*
X263409Y16307D02*G75*G02X257409Y16307I-3000J0D01*G01*
G75*G02X263409Y16307I3000J0D01*G01*
G54D67*X300118Y371327D02*X300928Y370517D01*
X300118Y369707D01*
X299308Y370517D01*
Y371327D01*
X300928Y372947D01*
X302548Y373757D01*
X304978D01*
X307408Y372947D01*
X309028Y371327D01*
X309843Y368897D01*
Y367277D01*
X309028Y364847D01*
X307408Y363222D01*
X304978Y362412D01*
X303358D01*
X300928Y363222D01*
X299308Y364847D01*
X304978Y373757D02*X306598Y372947D01*
X308218Y371327D01*
X309028Y368897D01*
Y367277D01*
X308218Y364847D01*
X306598Y363222D01*
X304978Y362412D01*
X288768Y373757D02*Y362412D01*
X287958Y373757D02*Y362412D01*
X279858Y373757D02*Y362412D01*
X279048Y373757D02*Y362412D01*
X291202Y373757D02*X276612D01*
X291202Y362412D02*X285528D01*
X282288D02*X276612D01*
X266882Y368897D02*X257162D01*
Y370517D01*
X257972Y372137D01*
X258782Y372947D01*
X260402Y373757D01*
X262832D01*
X265262Y372947D01*
X266882Y371327D01*
X267697Y368897D01*
Y367277D01*
X266882Y364847D01*
X265262Y363222D01*
X262832Y362412D01*
X261212D01*
X258782Y363222D01*
X257162Y364847D01*
X257972Y368897D02*Y371327D01*
X258782Y372947D01*
X262832Y373757D02*X264452Y372947D01*
X266072Y371327D01*
X266882Y368897D01*
Y367277D01*
X266072Y364847D01*
X264452Y363222D01*
X262832Y362412D01*
X246622Y373757D02*Y362412D01*
X245812Y373757D02*Y362412D01*
X237712Y373757D02*Y362412D01*
X236902Y373757D02*Y362412D01*
X249057Y373757D02*X243382D01*
X240142D02*X234467D01*
X249057Y362412D02*X234467D01*
Y358357D01*
X235277Y362412D01*
X223117Y373757D02*Y362412D01*
X222307Y373757D02*Y362412D01*
X214207Y373757D02*Y362412D01*
X213397Y373757D02*Y362412D01*
X225552Y373757D02*X219877D01*
X216637D02*X210962D01*
X225552Y362412D02*X219877D01*
X216637D02*X210962D01*
X214207Y372947D02*X222307Y363222D01*
X200427Y372137D02*Y371327D01*
X201237D01*
Y372137D01*
X200427Y372947D01*
X198807Y373757D01*
X195567D01*
X193947Y372947D01*
X193137Y372137D01*
X192327Y370517D01*
Y364847D01*
X191512Y363222D01*
X190702Y362412D01*
X193137Y372137D02*Y364847D01*
X192327Y363222D01*
X190702Y362412D01*
X189892D01*
X193137Y370517D02*X193947Y369707D01*
X198807Y368897D01*
X201237Y368087D01*
X202047Y366467D01*
Y364847D01*
X201237Y363222D01*
X198807Y362412D01*
X196377D01*
X194757Y363222D01*
X193137Y364847D01*
X198807Y368897D02*X200427Y368087D01*
X201237Y366467D01*
Y364847D01*
X200427Y363222D01*
X198807Y362412D01*
X178542Y373757D02*Y370517D01*
X179352Y365657D01*
X180162Y363222D01*
X180977Y362412D01*
X181787D01*
X182597Y363222D01*
X181787Y364032D01*
X180977Y363222D01*
X171252Y373757D02*Y362412D01*
X170442Y373757D02*Y362412D01*
X180977Y373757D02*X168007D01*
X173682Y362412D02*X168007D01*
X156662Y373757D02*Y362412D01*
X155852Y373757D02*Y362412D01*
X159092Y373757D02*X153422D01*
X155852Y368087D02*X152612D01*
X150182Y367277D01*
X149372Y365657D01*
Y364847D01*
X150182Y363222D01*
X152612Y362412D01*
X159092D01*
X152612Y368087D02*X150992Y367277D01*
X150182Y365657D01*
Y364847D01*
X150992Y363222D01*
X152612Y362412D01*
X140452Y373757D02*Y362412D01*
X139642Y373757D02*Y362412D01*
X131542Y373757D02*Y362412D01*
X130732Y373757D02*Y362412D01*
X142887Y373757D02*X137212D01*
X133972D02*X128297D01*
X139642Y368087D02*X131542D01*
X142887Y362412D02*X137212D01*
X133972D02*X128297D01*
X114517Y373757D02*X116947Y372947D01*
X118567Y371327D01*
X119382Y368897D01*
Y367277D01*
X118567Y364847D01*
X116947Y363222D01*
X114517Y362412D01*
X112897D01*
X110467Y363222D01*
X108847Y364847D01*
X108032Y367277D01*
Y368897D01*
X108847Y371327D01*
X110467Y372947D01*
X112897Y373757D01*
X114517D01*
X116137Y372947D01*
X117757Y371327D01*
X118567Y368897D01*
Y367277D01*
X117757Y364847D01*
X116137Y363222D01*
X114517Y362412D01*
X112897D02*X111277Y363222D01*
X109657Y364847D01*
X108847Y367277D01*
Y368897D01*
X109657Y371327D01*
X111277Y372947D01*
X112897Y373757D01*
X97492D02*Y362412D01*
X96682Y373757D02*Y362412D01*
X88582Y373757D02*Y362412D01*
X87772Y373757D02*Y362412D01*
X99927Y373757D02*X94252D01*
X91012D02*X85337D01*
X99927Y362412D02*X94252D01*
X91012D02*X85337D01*
X88582Y372947D02*X96682Y363222D01*
X95062Y378622D02*Y379432D01*
X95872D01*
Y378622D01*
X95062Y377002D01*
X93442Y376192D01*
X91822D01*
X90202Y377002D01*
X89392Y378622D01*
X262919Y337143D02*Y325798D01*
X262109Y337143D02*Y325798D01*
X265354Y337143D02*X256439D01*
X254009Y336333D01*
X253194Y334713D01*
Y333903D01*
X254009Y332283D01*
X256439Y331473D01*
Y337143D02*X254819Y336333D01*
X254009Y334713D01*
Y333903D01*
X254819Y332283D01*
X256439Y331473D01*
X262109D02*X256439D01*
X254009Y330663D01*
X253194Y329043D01*
Y328233D01*
X254009Y326608D01*
X256439Y325798D01*
X265354D01*
X256439Y331473D02*X254819Y330663D01*
X254009Y329043D01*
Y328233D01*
X254819Y326608D01*
X256439Y325798D01*
X240224Y337143D02*X242654Y336333D01*
X244274Y334713D01*
X245089Y332283D01*
Y330663D01*
X244274Y328233D01*
X242654Y326608D01*
X240224Y325798D01*
X238604D01*
X236174Y326608D01*
X234554Y328233D01*
X233739Y330663D01*
Y332283D01*
X234554Y334713D01*
X236174Y336333D01*
X238604Y337143D01*
X240224D01*
X241844Y336333D01*
X243464Y334713D01*
X244274Y332283D01*
Y330663D01*
X243464Y328233D01*
X241844Y326608D01*
X240224Y325798D01*
X238604D02*X236984Y326608D01*
X235364Y328233D01*
X234554Y330663D01*
Y332283D01*
X235364Y334713D01*
X236984Y336333D01*
X238604Y337143D01*
X224819Y332283D02*X215099D01*
Y333903D01*
X215909Y335523D01*
X216719Y336333D01*
X218339Y337143D01*
X220769D01*
X223199Y336333D01*
X224819Y334713D01*
X225634Y332283D01*
Y330663D01*
X224819Y328233D01*
X223199Y326608D01*
X220769Y325798D01*
X219149D01*
X216719Y326608D01*
X215099Y328233D01*
X215909Y332283D02*Y334713D01*
X216719Y336333D01*
X220769Y337143D02*X222389Y336333D01*
X224009Y334713D01*
X224819Y332283D01*
Y330663D01*
X224009Y328233D01*
X222389Y326608D01*
X220769Y325798D01*
X204559Y337143D02*Y325798D01*
X203749Y337143D02*Y325798D01*
X195649Y337143D02*Y325798D01*
X194839Y337143D02*Y325798D01*
X206994Y337143D02*X201319D01*
X198079D02*X192404D01*
X203749Y331473D02*X195649D01*
X206994Y325798D02*X201319D01*
X198079D02*X192404D01*
X181054Y337143D02*Y325798D01*
X180244Y337143D02*Y325798D01*
X172144Y337143D02*Y325798D01*
X171334Y337143D02*Y325798D01*
X183489Y337143D02*X177814D01*
X174574D02*X168899D01*
X180244Y331473D02*X172144D01*
X183489Y325798D02*X177814D01*
X174574D02*X168899D01*
X155119Y337143D02*X157549Y336333D01*
X159169Y334713D01*
X159984Y332283D01*
Y330663D01*
X159169Y328233D01*
X157549Y326608D01*
X155119Y325798D01*
X153499D01*
X151069Y326608D01*
X149449Y328233D01*
X148634Y330663D01*
Y332283D01*
X149449Y334713D01*
X151069Y336333D01*
X153499Y337143D01*
X155119D01*
X156739Y336333D01*
X158359Y334713D01*
X159169Y332283D01*
Y330663D01*
X158359Y328233D01*
X156739Y326608D01*
X155119Y325798D01*
X153499D02*X151879Y326608D01*
X150259Y328233D01*
X149449Y330663D01*
Y332283D01*
X150259Y334713D01*
X151879Y336333D01*
X153499Y337143D01*
X138094D02*Y325798D01*
X137284Y337143D02*Y325798D01*
X129184Y337143D02*Y325798D01*
X128374Y337143D02*Y325798D01*
X140529Y337143D02*X134854D01*
X131614D02*X125939D01*
X140529Y325798D02*X134854D01*
X131614D02*X125939D01*
X129184Y336333D02*X137284Y326608D01*
X135664Y342008D02*Y342818D01*
X136474D01*
Y342008D01*
X135664Y340388D01*
X134044Y339578D01*
X132424D01*
X130804Y340388D01*
X129994Y342008D01*
X273088Y301710D02*X275518Y300900D01*
X277138Y299280D01*
X277953Y296850D01*
Y295230D01*
X277138Y292800D01*
X275518Y291175D01*
X273088Y290365D01*
X271468D01*
X269038Y291175D01*
X267418Y292800D01*
X266603Y295230D01*
Y296850D01*
X267418Y299280D01*
X269038Y300900D01*
X271468Y301710D01*
X273088D01*
X274708Y300900D01*
X276328Y299280D01*
X277138Y296850D01*
Y295230D01*
X276328Y292800D01*
X274708Y291175D01*
X273088Y290365D01*
X271468D02*X269848Y291175D01*
X268228Y292800D01*
X267418Y295230D01*
Y296850D01*
X268228Y299280D01*
X269848Y300900D01*
X271468Y301710D01*
X256063D02*Y290365D01*
X255253Y301710D02*Y290365D01*
X247153Y301710D02*Y290365D01*
X246343Y301710D02*Y290365D01*
X258498Y301710D02*X243908D01*
X258498Y290365D02*X252823D01*
X249583D02*X243908D01*
X234178Y296850D02*X224458D01*
Y298470D01*
X225268Y300090D01*
X226078Y300900D01*
X227698Y301710D01*
X230128D01*
X232558Y300900D01*
X234178Y299280D01*
X234993Y296850D01*
Y295230D01*
X234178Y292800D01*
X232558Y291175D01*
X230128Y290365D01*
X228508D01*
X226078Y291175D01*
X224458Y292800D01*
X225268Y296850D02*Y299280D01*
X226078Y300900D01*
X230128Y301710D02*X231748Y300900D01*
X233368Y299280D01*
X234178Y296850D01*
Y295230D01*
X233368Y292800D01*
X231748Y291175D01*
X230128Y290365D01*
X213918Y301710D02*Y284690D01*
X213108Y301710D02*Y284690D01*
Y299280D02*X211488Y300900D01*
X209868Y301710D01*
X208248D01*
X205818Y300900D01*
X204198Y299280D01*
X203383Y296850D01*
Y295230D01*
X204198Y292800D01*
X205818Y291175D01*
X208248Y290365D01*
X209868D01*
X211488Y291175D01*
X213108Y292800D01*
X208248Y301710D02*X206628Y300900D01*
X205008Y299280D01*
X204198Y296850D01*
Y295230D01*
X205008Y292800D01*
X206628Y291175D01*
X208248Y290365D01*
X216353Y301710D02*X213108D01*
X216353Y284690D02*X210678D01*
X192848Y300090D02*Y299280D01*
X193658D01*
Y300090D01*
X192848Y300900D01*
X191228Y301710D01*
X187988D01*
X186368Y300900D01*
X185558Y300090D01*
X184748Y298470D01*
Y292800D01*
X183933Y291175D01*
X183123Y290365D01*
X185558Y300090D02*Y292800D01*
X184748Y291175D01*
X183123Y290365D01*
X182313D01*
X185558Y298470D02*X186368Y297660D01*
X191228Y296850D01*
X193658Y296040D01*
X194468Y294420D01*
Y292800D01*
X193658Y291175D01*
X191228Y290365D01*
X188798D01*
X187178Y291175D01*
X185558Y292800D01*
X191228Y296850D02*X192848Y296040D01*
X193658Y294420D01*
Y292800D01*
X192848Y291175D01*
X191228Y290365D01*
X172583Y301710D02*Y290365D01*
X171773Y301710D02*Y290365D01*
X163673Y301710D02*Y290365D01*
X162863Y301710D02*Y290365D01*
X175018Y301710D02*X169343D01*
X166103D02*X160428D01*
X175018Y290365D02*X160428D01*
Y286310D01*
X161238Y290365D01*
X149078Y301710D02*Y290365D01*
X148268Y301710D02*Y290365D01*
X140168Y301710D02*Y290365D01*
X139358Y301710D02*Y290365D01*
X151513Y301710D02*X145838D01*
X142598D02*X136923D01*
X151513Y290365D02*X145838D01*
X142598D02*X136923D01*
X140168Y300900D02*X148268Y291175D01*
X125573Y301710D02*Y290365D01*
X124763Y301710D02*Y290365D01*
X116663Y301710D02*Y290365D01*
X115853Y301710D02*Y290365D01*
X128008Y301710D02*X122333D01*
X119093D02*X113418D01*
X128008Y290365D02*X122333D01*
X119093D02*X113418D01*
X116663Y300900D02*X124763Y291175D01*
G54D68*X240121Y266800D02*Y261127D01*
X239716Y266800D02*Y261127D01*
X241339Y266800D02*X236881D01*
X235666Y266395D01*
X235259Y265585D01*
Y265180D01*
X235666Y264370D01*
X236881Y263965D01*
Y266800D02*X236071Y266395D01*
X235666Y265585D01*
Y265180D01*
X236071Y264370D01*
X236881Y263965D01*
X239716D02*X236881D01*
X235666Y263560D01*
X235259Y262750D01*
Y262345D01*
X235666Y261532D01*
X236881Y261127D01*
X241339D01*
X236881Y263965D02*X236071Y263560D01*
X235666Y262750D01*
Y262345D01*
X236071Y261532D01*
X236881Y261127D01*
X230799Y264370D02*X225939D01*
Y265180D01*
X226344Y265990D01*
X226749Y266395D01*
X227559Y266800D01*
X228774D01*
X229989Y266395D01*
X230799Y265585D01*
X231206Y264370D01*
Y263560D01*
X230799Y262345D01*
X229989Y261532D01*
X228774Y261127D01*
X227964D01*
X226749Y261532D01*
X225939Y262345D01*
X226344Y264370D02*Y265585D01*
X226749Y266395D01*
X228774Y266800D02*X229584Y266395D01*
X230394Y265585D01*
X230799Y264370D01*
Y263560D01*
X230394Y262345D01*
X229584Y261532D01*
X228774Y261127D01*
X220669Y266800D02*Y258290D01*
X220264Y266800D02*Y258290D01*
Y265585D02*X219454Y266395D01*
X218644Y266800D01*
X217834D01*
X216619Y266395D01*
X215809Y265585D01*
X215401Y264370D01*
Y263560D01*
X215809Y262345D01*
X216619Y261532D01*
X217834Y261127D01*
X218644D01*
X219454Y261532D01*
X220264Y262345D01*
X217834Y266800D02*X217024Y266395D01*
X216214Y265585D01*
X215809Y264370D01*
Y263560D01*
X216214Y262345D01*
X217024Y261532D01*
X217834Y261127D01*
X221886Y266800D02*X220264D01*
X221886Y258290D02*X219049D01*
X206081Y265585D02*X206486Y265180D01*
X206081Y264775D01*
X205676Y265180D01*
Y265585D01*
X206486Y266395D01*
X207296Y266800D01*
X208511D01*
X209726Y266395D01*
X210536Y265585D01*
X210944Y264370D01*
Y263560D01*
X210536Y262345D01*
X209726Y261532D01*
X208511Y261127D01*
X207701D01*
X206486Y261532D01*
X205676Y262345D01*
X208511Y266800D02*X209321Y266395D01*
X210131Y265585D01*
X210536Y264370D01*
Y263560D01*
X210131Y262345D01*
X209321Y261532D01*
X208511Y261127D01*
X200406Y266800D02*Y261127D01*
X200001Y266800D02*Y261127D01*
X195951Y266800D02*Y261127D01*
X195546Y266800D02*Y261127D01*
X201624Y266800D02*X198786D01*
X197166D02*X194329D01*
X201624Y261127D02*X198786D01*
X197166D02*X194329D01*
X195951Y266395D02*X200001Y261532D01*
X185009Y266800D02*Y261127D01*
X184604Y266800D02*Y261127D01*
X183386Y266800D02*X187844D01*
X189059Y266395D01*
X189466Y265585D01*
Y265180D01*
X189059Y264370D01*
X187844Y263965D01*
X185009D01*
X187844Y266800D02*X188654Y266395D01*
X189059Y265585D01*
Y265180D01*
X188654Y264370D01*
X187844Y263965D01*
X185819D02*X187034Y263560D01*
X187439Y263155D01*
X188249Y261532D01*
X188654Y261127D01*
X185819Y263965D02*X186629Y263560D01*
X187034Y263155D01*
X187844Y261532D01*
X188249Y261127D01*
X189059D01*
X189466Y261532D01*
X189871Y262345D01*
X186224Y261127D02*X183386D01*
X172444Y268017D02*X171634Y268422D01*
X170419Y269637D01*
Y261127D01*
X170824Y269232D02*Y261127D01*
X172444D02*X168799D01*
X164341Y263155D02*X164746Y262750D01*
X164341Y262345D01*
X163936Y262750D01*
X164341Y263155D01*
X156641Y269637D02*X157856Y269232D01*
X158666Y268017D01*
X159074Y265990D01*
Y264775D01*
X158666Y262750D01*
X157856Y261532D01*
X156641Y261127D01*
X155831D01*
X154616Y261532D01*
X153806Y262750D01*
X153399Y264775D01*
Y265990D01*
X153806Y268017D01*
X154616Y269232D01*
X155831Y269637D01*
X156641D01*
X157451Y269232D01*
X157856Y268827D01*
X158261Y268017D01*
X158666Y265990D01*
Y264775D01*
X158261Y262750D01*
X157856Y261937D01*
X157451Y261532D01*
X156641Y261127D01*
X155831D02*X155021Y261532D01*
X154616Y261937D01*
X154211Y262750D01*
X153806Y264775D01*
Y265990D01*
X154211Y268017D01*
X154616Y268827D01*
X155021Y269232D01*
X155831Y269637D01*
G54D69*X304224Y279315D02*Y275315D01*
X304724Y279315D02*X302724D01*
X302224Y278815D01*
Y277815D01*
X302724Y277315D02*X302224Y277815D01*
X304224Y277315D02*X302724D01*
X301024Y275315D02*X299024D01*
X298524Y275815D01*
Y277015D02*Y275815D01*
X299024Y277515D02*X298524Y277015D01*
X300524Y277515D02*X299024D01*
X300524Y279315D02*Y275315D01*
X301024Y279315D02*X299024D01*
X298524Y278815D01*
Y278015D01*
X299024Y277515D02*X298524Y278015D01*
X297324Y278815D02*X296824Y279315D01*
X295824D01*
X295324Y278815D01*
X295824Y275315D02*X295324Y275815D01*
X296824Y275315D02*X295824D01*
X297324Y275815D02*X296824Y275315D01*
Y277515D02*X295824D01*
X295324Y278815D02*Y278015D01*
Y277015D02*Y275815D01*
Y277015D02*X295824Y277515D01*
X295324Y278015D02*X295824Y277515D01*
X315437Y291055D02*Y287055D01*
X314137Y291055D02*X313437Y290355D01*
Y287755D01*
X314137Y287055D02*X313437Y287755D01*
X315937Y287055D02*X314137D01*
X315937Y291055D02*X314137D01*
X312237Y290255D02*X311437Y291055D01*
Y287055D01*
X312237D02*X310737D01*
X342398Y162795D02*X342898Y163295D01*
Y164295D01*
X342398Y164795D01*
X338898Y164295D02*X339398Y164795D01*
X338898Y163295D02*Y164295D01*
X339398Y162795D02*X338898Y163295D01*
X341098D02*Y164295D01*
X342398Y164795D02*X341598D01*
X340598D02*X339398D01*
X340598D02*X341098Y164295D01*
X341598Y164795D02*X341098Y164295D01*
X342398Y165995D02*X342898Y166495D01*
Y167995D01*
X342398Y168495D01*
X341398D01*
X338898Y165995D02*X341398Y168495D01*
X338898Y165995D02*Y168495D01*
X339398Y169695D02*X338898Y170195D01*
X342398Y169695D02*X339398D01*
X342398D02*X342898Y170195D01*
Y171195D01*
X342398Y171695D01*
X339398D01*
X338898Y171195D02*X339398Y171695D01*
X338898Y170195D02*Y171195D01*
X339898Y169695D02*X341898Y171695D01*
X342898Y172895D02*Y174895D01*
X342398Y175395D01*
X341398D01*
X340898Y174895D02*X341398Y175395D01*
X340898Y173395D02*Y174895D01*
X342898Y173395D02*X338898D01*
X340898Y174195D02*X338898Y175395D01*
X355287Y162598D02*X356087Y163398D01*
X352087D01*
Y162598D02*Y164098D01*
X352587Y165298D02*X352087Y165798D01*
X355587Y165298D02*X352587D01*
X355587D02*X356087Y165798D01*
Y166798D01*
X355587Y167298D01*
X352587D01*
X352087Y166798D02*X352587Y167298D01*
X352087Y165798D02*Y166798D01*
X353087Y165298D02*X355087Y167298D01*
X356087Y168498D02*X352087D01*
X353587D02*X352087Y169998D01*
X353587Y168498D02*X354587Y169498D01*
X327406Y162795D02*X329906Y164795D01*
X327406Y162795D02*Y165295D01*
X329906Y164795D02*X325906D01*
Y166995D02*X329906Y168995D01*
Y166495D02*Y168995D01*
Y170195D02*X325906D01*
X327406D02*X325906Y171695D01*
X327406Y170195D02*X328406Y171195D01*
X381465Y174984D02*X380965Y174484D01*
X382965Y174984D02*X381465D01*
X383465Y174484D02*X382965Y174984D01*
X383465Y174484D02*Y173484D01*
X382965Y172984D01*
X381465D01*
X380965Y172484D01*
Y171484D01*
X381465Y170984D02*X380965Y171484D01*
X382965Y170984D02*X381465D01*
X383465Y171484D02*X382965Y170984D01*
X379765Y174984D02*Y172984D01*
X379265Y170984D01*
X378265Y172984D01*
X377265Y170984D01*
X376765Y172984D01*
Y174984D01*
X375565Y174184D02*X374765Y174984D01*
Y170984D01*
X375565D02*X374065D01*
X344095Y141126D02*X342095D01*
X341595Y140626D01*
Y139626D01*
X342095Y139126D02*X341595Y139626D01*
X343595Y139126D02*X342095D01*
X343595Y141126D02*Y137126D01*
X342795Y139126D02*X341595Y137126D01*
X340395Y140326D02*X339595Y141126D01*
Y137126D01*
X340395D02*X338895D01*
X357284Y141126D02*X355284D01*
X354784Y140626D01*
Y139626D01*
X355284Y139126D02*X354784Y139626D01*
X356784Y139126D02*X355284D01*
X356784Y141126D02*Y137126D01*
X355984Y139126D02*X354784Y137126D01*
X353584Y140626D02*X353084Y141126D01*
X351584D01*
X351084Y140626D01*
Y139626D01*
X353584Y137126D02*X351084Y139626D01*
X353584Y137126D02*X351084D01*
X331103Y141126D02*X329103D01*
X328603Y140626D01*
Y139626D01*
X329103Y139126D02*X328603Y139626D01*
X330603Y139126D02*X329103D01*
X330603Y141126D02*Y137126D01*
X329803Y139126D02*X328603Y137126D01*
X327403Y140626D02*X326903Y141126D01*
X325903D01*
X325403Y140626D01*
X325903Y137126D02*X325403Y137626D01*
X326903Y137126D02*X325903D01*
X327403Y137626D02*X326903Y137126D01*
Y139326D02*X325903D01*
X325403Y140626D02*Y139826D01*
Y138826D02*Y137626D01*
Y138826D02*X325903Y139326D01*
X325403Y139826D02*X325903Y139326D01*
X321260Y101743D02*X320460Y102543D01*
Y98543D01*
X321260D02*X319760D01*
X318560Y99043D02*X318060Y98543D01*
X318560Y102043D02*Y99043D01*
Y102043D02*X318060Y102543D01*
X317060D01*
X316560Y102043D01*
Y99043D01*
X317060Y98543D02*X316560Y99043D01*
X318060Y98543D02*X317060D01*
X318560Y99543D02*X316560Y101543D01*
X315360Y99043D02*X314860Y98543D01*
X315360Y102043D02*Y99043D01*
Y102043D02*X314860Y102543D01*
X313860D01*
X313360Y102043D01*
Y99043D01*
X313860Y98543D02*X313360Y99043D01*
X314860Y98543D02*X313860D01*
X315360Y99543D02*X313360Y101543D01*
X311660Y100043D02*Y98543D01*
Y100043D02*X311160Y100543D01*
X310660D01*
X310160Y100043D01*
Y98543D01*
X312160Y100543D02*X311660Y100043D01*
X327559Y116504D02*Y113504D01*
Y116504D02*X326859Y117504D01*
X325759D01*
X325059Y116504D01*
Y113504D01*
X327559Y115504D02*X325059D01*
X323859Y117504D02*X321859D01*
X322859D02*Y113504D01*
X320659Y117504D02*X318659D01*
X319659D02*Y113504D01*
X317459Y117504D02*X316459D01*
X316959D02*Y113504D01*
X317459D02*X316459D01*
X315259Y117504D02*Y113504D01*
Y117504D02*X312759Y113504D01*
Y117504D02*Y113504D01*
X311559Y117504D02*X310559Y115504D01*
X309559Y117504D01*
X310559Y115504D02*Y113504D01*
X308359Y116704D02*X307559Y117504D01*
Y113504D01*
X308359D02*X306859D01*
X305659Y117004D02*X305159Y117504D01*
X304159D01*
X303659Y117004D01*
X304159Y113504D02*X303659Y114004D01*
X305159Y113504D02*X304159D01*
X305659Y114004D02*X305159Y113504D01*
Y115704D02*X304159D01*
X303659Y117004D02*Y116204D01*
Y115204D02*Y114004D01*
Y115204D02*X304159Y115704D01*
X303659Y116204D02*X304159Y115704D01*
X302459Y114004D02*X299459Y117004D01*
X298259D02*X297759Y117504D01*
X296259D01*
X295759Y117004D01*
Y116004D01*
X298259Y113504D02*X295759Y116004D01*
X298259Y113504D02*X295759D01*
X294559Y117504D02*X292559D01*
X294559D02*Y115504D01*
X294059Y116004D01*
X293059D01*
X292559Y115504D01*
Y114004D01*
X293059Y113504D02*X292559Y114004D01*
X294059Y113504D02*X293059D01*
X294559Y114004D02*X294059Y113504D01*
X291359Y114004D02*X288359Y117004D01*
X287159Y115004D02*X285159Y117504D01*
X287159Y115004D02*X284659D01*
X285159Y117504D02*Y113504D01*
X283459Y117504D02*X281459D01*
X283459D02*Y115504D01*
X282959Y116004D01*
X281959D01*
X281459Y115504D01*
Y114004D01*
X281959Y113504D02*X281459Y114004D01*
X282959Y113504D02*X281959D01*
X283459Y114004D02*X282959Y113504D01*
X280259Y114004D02*X277259Y117004D01*
X276059Y114004D02*X275559Y113504D01*
X276059Y114804D02*Y114004D01*
Y114804D02*X275359Y115504D01*
X274759D01*
X274059Y114804D01*
Y114004D01*
X274559Y113504D02*X274059Y114004D01*
X275559Y113504D02*X274559D01*
X276059Y116204D02*X275359Y115504D01*
X276059Y117004D02*Y116204D01*
Y117004D02*X275559Y117504D01*
X274559D01*
X274059Y117004D01*
Y116204D01*
X274759Y115504D02*X274059Y116204D01*
X272859Y117504D02*X270859D01*
X272859D02*Y115504D01*
X272359Y116004D01*
X271359D01*
X270859Y115504D01*
Y114004D01*
X271359Y113504D02*X270859Y114004D01*
X272359Y113504D02*X271359D01*
X272859Y114004D02*X272359Y113504D01*
X320571Y104307D02*X319271D01*
X321271Y105007D02*X320571Y104307D01*
X321271Y107607D02*Y105007D01*
Y107607D02*X320571Y108307D01*
X319271D01*
X318071Y107507D02*X317271Y108307D01*
Y104307D01*
X318071D02*X316571D01*
X366898Y82858D02*X366398Y82358D01*
X368398Y82858D02*X366898D01*
X368898Y82358D02*X368398Y82858D01*
X368898Y82358D02*Y81358D01*
X368398Y80858D01*
X366898D01*
X366398Y80358D01*
Y79358D01*
X366898Y78858D02*X366398Y79358D01*
X368398Y78858D02*X366898D01*
X368898Y79358D02*X368398Y78858D01*
X364498D02*X363198D01*
X365198Y79558D02*X364498Y78858D01*
X365198Y82158D02*Y79558D01*
Y82158D02*X364498Y82858D01*
X363198D01*
X361998D02*Y78858D01*
Y80858D02*X359998Y82858D01*
X361998Y80858D02*X359998Y78858D01*
X372047Y92701D02*Y88701D01*
Y92701D02*X370547Y90701D01*
X369047Y92701D01*
Y88701D01*
X367847Y92701D02*X366847D01*
X367347D02*Y88701D01*
X367847D02*X366847D01*
X363647Y92701D02*X363147Y92201D01*
X365147Y92701D02*X363647D01*
X365647Y92201D02*X365147Y92701D01*
X365647Y92201D02*Y91201D01*
X365147Y90701D01*
X363647D01*
X363147Y90201D01*
Y89201D01*
X363647Y88701D02*X363147Y89201D01*
X365147Y88701D02*X363647D01*
X365647Y89201D02*X365147Y88701D01*
X361947Y92201D02*Y89201D01*
Y92201D02*X361447Y92701D01*
X360447D01*
X359947Y92201D01*
Y89201D01*
X360447Y88701D02*X359947Y89201D01*
X361447Y88701D02*X360447D01*
X361947Y89201D02*X361447Y88701D01*
X371441Y146169D02*X367441D01*
X371441Y145669D02*Y147669D01*
X370941Y148169D01*
X369941D01*
X369441Y147669D02*X369941Y148169D01*
X369441Y146169D02*Y147669D01*
X367441Y149369D02*Y151369D01*
X367941Y151869D01*
X369141D02*X367941D01*
X369641Y151369D02*X369141Y151869D01*
X369641Y149869D02*Y151369D01*
X371441Y149869D02*X367441D01*
X371441Y149369D02*Y151369D01*
X370941Y151869D01*
X370141D01*
X369641Y151369D02*X370141Y151869D01*
X371441Y153069D02*Y155069D01*
Y153069D02*X369441D01*
X369941Y153569D01*
Y154569D01*
X369441Y155069D01*
X367941D01*
X367441Y154569D02*X367941Y155069D01*
X367441Y153569D02*Y154569D01*
X367941Y153069D02*X367441Y153569D01*
X360827Y112346D02*Y108846D01*
X360327Y108346D01*
X359327D01*
X358827Y108846D01*
Y112346D02*Y108846D01*
X357627Y111546D02*X356827Y112346D01*
Y108346D01*
X357627D02*X356127D01*
X64854Y34433D02*Y30433D01*
X65354Y34433D02*X63354D01*
X62854Y33933D01*
Y32933D01*
X63354Y32433D02*X62854Y32933D01*
X64854Y32433D02*X63354D01*
X61654Y30433D02*X59654D01*
X59154Y30933D01*
Y32133D02*Y30933D01*
X59654Y32633D02*X59154Y32133D01*
X61154Y32633D02*X59654D01*
X61154Y34433D02*Y30433D01*
X61654Y34433D02*X59654D01*
X59154Y33933D01*
Y33133D01*
X59654Y32633D02*X59154Y33133D01*
X57954Y31933D02*X55954Y34433D01*
X57954Y31933D02*X55454D01*
X55954Y34433D02*Y30433D01*
X34539Y58055D02*Y54055D01*
X35039Y58055D02*X33039D01*
X32539Y57555D01*
Y56555D01*
X33039Y56055D02*X32539Y56555D01*
X34539Y56055D02*X33039D01*
X31339Y58055D02*X30339D01*
X30839D02*Y54055D01*
X31339D02*X30339D01*
X29139Y56255D02*X27639D01*
X29139Y54055D02*X27139D01*
X29139Y58055D02*Y54055D01*
Y58055D02*X27139D01*
X25939D02*X23439D01*
X25939Y54055D02*X23439Y58055D01*
X25939Y54055D02*X23439D01*
X22239Y57555D02*Y54555D01*
Y57555D02*X21739Y58055D01*
X20739D01*
X20239Y57555D01*
Y54555D01*
X20739Y54055D02*X20239Y54555D01*
X21739Y54055D02*X20739D01*
X22239Y54555D02*X21739Y54055D01*
X340472Y50378D02*Y46878D01*
X339972Y46378D01*
X338972D01*
X338472Y46878D01*
Y50378D02*Y46878D01*
X335272Y50378D02*X334772Y49878D01*
X336772Y50378D02*X335272D01*
X337272Y49878D02*X336772Y50378D01*
X337272Y49878D02*Y48878D01*
X336772Y48378D01*
X335272D01*
X334772Y47878D01*
Y46878D01*
X335272Y46378D02*X334772Y46878D01*
X336772Y46378D02*X335272D01*
X337272Y46878D02*X336772Y46378D01*
X333572D02*X331572D01*
X331072Y46878D01*
Y48078D02*Y46878D01*
X331572Y48578D02*X331072Y48078D01*
X333072Y48578D02*X331572D01*
X333072Y50378D02*Y46378D01*
X333572Y50378D02*X331572D01*
X331072Y49878D01*
Y49078D01*
X331572Y48578D02*X331072Y49078D01*
X369291Y72622D02*X367291D01*
X366791Y72122D01*
Y71122D01*
X367291Y70622D02*X366791Y71122D01*
X368791Y70622D02*X367291D01*
X368791Y72622D02*Y68622D01*
X367991Y70622D02*X366791Y68622D01*
X363591Y72622D02*X363091Y72122D01*
X365091Y72622D02*X363591D01*
X365591Y72122D02*X365091Y72622D01*
X365591Y72122D02*Y71122D01*
X365091Y70622D01*
X363591D01*
X363091Y70122D01*
Y69122D01*
X363591Y68622D02*X363091Y69122D01*
X365091Y68622D02*X363591D01*
X365591Y69122D02*X365091Y68622D01*
X361891Y72622D02*X359891D01*
X360891D02*Y68622D01*
X343425Y33843D02*X342425Y29843D01*
X341425Y33843D01*
X339725Y31843D02*X338225D01*
X340225Y31343D02*X339725Y31843D01*
X340225Y31343D02*Y30343D01*
X339725Y29843D01*
X338225D01*
X336525Y31843D02*X335025D01*
X337025Y31343D02*X336525Y31843D01*
X337025Y31343D02*Y30343D01*
X336525Y29843D01*
X335025D01*
X376063Y41520D02*Y38020D01*
X375563Y37520D01*
X374563D01*
X374063Y38020D01*
Y41520D02*Y38020D01*
X370863Y41520D02*X370363Y41020D01*
X372363Y41520D02*X370863D01*
X372863Y41020D02*X372363Y41520D01*
X372863Y41020D02*Y40020D01*
X372363Y39520D01*
X370863D01*
X370363Y39020D01*
Y38020D01*
X370863Y37520D02*X370363Y38020D01*
X372363Y37520D02*X370863D01*
X372863Y38020D02*X372363Y37520D01*
X369163D02*X367163D01*
X366663Y38020D01*
Y39220D02*Y38020D01*
X367163Y39720D02*X366663Y39220D01*
X368663Y39720D02*X367163D01*
X368663Y41520D02*Y37520D01*
X369163Y41520D02*X367163D01*
X366663Y41020D01*
Y40220D01*
X367163Y39720D02*X366663Y40220D01*
X363663Y37520D02*X361663D01*
X361163Y38020D01*
Y39220D02*Y38020D01*
X361663Y39720D02*X361163Y39220D01*
X363163Y39720D02*X361663D01*
X363163Y41520D02*Y37520D01*
X363663Y41520D02*X361663D01*
X361163Y41020D01*
Y40220D01*
X361663Y39720D02*X361163Y40220D01*
X358163Y39520D02*X357163Y37520D01*
X356163Y39520D02*X357163Y37520D01*
X354463D02*X352963D01*
X354963Y38020D02*X354463Y37520D01*
X354963Y39020D02*Y38020D01*
Y39020D02*X354463Y39520D01*
X353463D01*
X352963Y39020D01*
X354963Y38520D02*X352963D01*
Y39020D01*
X351263D02*Y37520D01*
Y39020D02*X350763Y39520D01*
X349763D01*
X351763D02*X351263Y39020D01*
X348063Y41520D02*Y38020D01*
X347563Y37520D01*
X348563Y40020D02*X347563D01*
X346563Y40520D02*Y40420D01*
Y39020D02*Y37520D01*
X345063Y39520D02*X343563D01*
X345563Y39020D02*X345063Y39520D01*
X345563Y39020D02*Y38020D01*
X345063Y37520D01*
X343563D01*
X340863Y39520D02*X340363Y39020D01*
X341863Y39520D02*X340863D01*
X342363Y39020D02*X341863Y39520D01*
X342363Y39020D02*Y38020D01*
X341863Y37520D01*
X340363Y39520D02*Y38020D01*
X339863Y37520D01*
X341863D02*X340863D01*
X340363Y38020D01*
X338663Y41520D02*Y38020D01*
X338163Y37520D01*
X352520Y64276D02*X351520D01*
X352020D02*Y60276D01*
X352520D02*X351520D01*
X348320Y64276D02*X347820Y63776D01*
X349820Y64276D02*X348320D01*
X350320Y63776D02*X349820Y64276D01*
X350320Y63776D02*Y62776D01*
X349820Y62276D01*
X348320D01*
X347820Y61776D01*
Y60776D01*
X348320Y60276D02*X347820Y60776D01*
X349820Y60276D02*X348320D01*
X350320Y60776D02*X349820Y60276D01*
X346120Y64276D02*Y60276D01*
X346620Y64276D02*X344620D01*
X344120Y63776D01*
Y62776D01*
X344620Y62276D02*X344120Y62776D01*
X346120Y62276D02*X344620D01*
G54D70*X216909Y53807D02*Y49307D01*
Y53807D02*X215409Y55307D01*
X213909D01*
X212409Y53807D01*
Y49307D01*
Y53807D02*X210909Y55307D01*
X209409D01*
X207909Y53807D01*
Y49307D01*
X218409Y55307D02*X216909Y53807D01*
X199809Y55307D02*X198309Y53807D01*
X202809Y55307D02*X199809D01*
X204309Y53807D02*X202809Y55307D01*
X204309Y53807D02*Y50807D01*
X202809Y49307D01*
X198309Y55307D02*Y50807D01*
X196809Y49307D01*
X202809D02*X199809D01*
X198309Y50807D01*
X187209Y61307D02*Y49307D01*
X188709D02*X187209Y50807D01*
X191709Y49307D02*X188709D01*
X193209Y50807D02*X191709Y49307D01*
X193209Y53807D02*Y50807D01*
Y53807D02*X191709Y55307D01*
X188709D01*
X187209Y53807D01*
X182109Y49307D02*X177609D01*
X183609Y50807D02*X182109Y49307D01*
X183609Y53807D02*Y50807D01*
Y53807D02*X182109Y55307D01*
X179109D01*
X177609Y53807D01*
X183609Y52307D02*X177609D01*
Y53807D01*
X168609Y55307D02*Y50807D01*
X167109Y49307D01*
X165609D01*
X164109Y50807D01*
Y55307D02*Y50807D01*
X162609Y49307D01*
X161109D01*
X159609Y50807D01*
Y55307D02*Y50807D01*
G54D71*X156009Y58307D02*Y58007D01*
G54D70*Y53807D02*Y49307D01*
X151509Y61307D02*Y50807D01*
X150009Y49307D01*
X153009Y56807D02*X150009D01*
X147009Y61307D02*Y49307D01*
Y53807D02*X145509Y55307D01*
X142509D01*
X141009Y53807D01*
Y49307D01*
G54D69*X391732Y60350D02*X390232D01*
X391732Y58150D02*X389732D01*
X391732Y62150D02*Y58150D01*
Y62150D02*X389732D01*
X388532Y58150D02*X386032Y62150D01*
X388532D02*X386032Y58150D01*
X384832Y62150D02*X382832D01*
X383832D02*Y58150D01*
X381632D02*X379632D01*
X378432Y62150D02*X376432D01*
X378432D02*Y60150D01*
X377932Y60650D01*
X376932D01*
X376432Y60150D01*
Y58650D01*
X376932Y58150D02*X376432Y58650D01*
X377932Y58150D02*X376932D01*
X378432Y58650D02*X377932Y58150D01*
X375232Y62150D02*X374232Y58150D01*
X373232Y62150D01*
X335008Y72622D02*X334508Y72122D01*
X336508Y72622D02*X335008D01*
X337008Y72122D02*X336508Y72622D01*
X337008Y72122D02*Y69122D01*
X336508Y68622D01*
X335008D01*
X334508Y69122D01*
Y70122D02*Y69122D01*
X335008Y70622D02*X334508Y70122D01*
X336008Y70622D02*X335008D01*
X333308Y72622D02*Y68622D01*
Y72622D02*X330808Y68622D01*
Y72622D02*Y68622D01*
X329108Y72622D02*Y68622D01*
X327808Y72622D02*X327108Y71922D01*
Y69322D01*
X327808Y68622D02*X327108Y69322D01*
X329608Y68622D02*X327808D01*
X329608Y72622D02*X327808D01*
X336831Y82642D02*Y78642D01*
Y82642D02*X335331Y80642D01*
X333831Y82642D01*
Y78642D01*
X332631Y82142D02*Y79142D01*
Y82142D02*X332131Y82642D01*
X331131D01*
X330631Y82142D01*
Y79142D01*
X331131Y78642D02*X330631Y79142D01*
X332131Y78642D02*X331131D01*
X332631Y79142D02*X332131Y78642D01*
X327431Y82642D02*X326931Y82142D01*
X328931Y82642D02*X327431D01*
X329431Y82142D02*X328931Y82642D01*
X329431Y82142D02*Y81142D01*
X328931Y80642D01*
X327431D01*
X326931Y80142D01*
Y79142D01*
X327431Y78642D02*X326931Y79142D01*
X328931Y78642D02*X327431D01*
X329431Y79142D02*X328931Y78642D01*
X325731Y82642D02*X324731D01*
X325231D02*Y78642D01*
X325731D02*X324731D01*
X337008Y92701D02*X335008D01*
X337008D02*Y90701D01*
X336508Y91201D01*
X335508D01*
X335008Y90701D01*
Y89201D01*
X335508Y88701D02*X335008Y89201D01*
X336508Y88701D02*X335508D01*
X337008Y89201D02*X336508Y88701D01*
X333808Y92701D02*X332808Y88701D01*
X331808Y92701D01*
X342409Y12189D02*X341909Y11689D01*
X343909Y12189D02*X342409D01*
X344409Y11689D02*X343909Y12189D01*
X344409Y11689D02*Y8689D01*
X343909Y8189D01*
X342409D01*
X341909Y8689D01*
Y9689D02*Y8689D01*
X342409Y10189D02*X341909Y9689D01*
X343409Y10189D02*X342409D01*
X340709Y12189D02*Y8189D01*
Y12189D02*X338209Y8189D01*
Y12189D02*Y8189D01*
X336509Y12189D02*Y8189D01*
X335209Y12189D02*X334509Y11489D01*
Y8889D01*
X335209Y8189D02*X334509Y8889D01*
X337009Y8189D02*X335209D01*
X337009Y12189D02*X335209D01*
M02*
