G04 start of page 2 for group 13 layer_idx 12 *
G04 Title: (unknown), bottom_paste *
G04 Creator: pcb-rnd 3.1.4-dev *
G04 CreationDate: 2024-02-06 06:50:58 UTC *
G04 For: STEM4ukraine *
G04 Format: Gerber/RS-274X *
G04 PCB-Dimensions: 393701 393701 *
G04 PCB-Coordinate-Origin: lower left *
%MOIN*%
%FSLAX25Y25*%
%LNBOTTOM_PASTE_NONE_13*%
%ADD82C,0.0001*%
G54D82*G36*
X337205Y159645D02*Y154527D01*
X344685D01*
Y159645D01*
X337205D01*
G37*
G36*
X350197Y159645D02*Y154527D01*
X357677D01*
Y159645D01*
X350197D01*
G37*
G36*
X375984Y163189D02*Y169094D01*
X381496D01*
Y163189D01*
X375984D01*
G37*
G36*
X330677Y131984D02*X339177D01*
Y129984D01*
X330677D01*
Y131984D01*
G37*
G36*
X337205Y147835D02*Y142717D01*
X344685D01*
Y147835D01*
X337205D01*
G37*
G36*
X350197Y147835D02*Y142717D01*
X357677D01*
Y147835D01*
X350197D01*
G37*
G36*
X375984Y132480D02*Y138386D01*
X381496D01*
Y132480D01*
X375984D01*
G37*
G36*
X330677Y126984D02*X339177D01*
Y124984D01*
X330677D01*
Y126984D01*
G37*
G36*
X359677Y124984D02*X351177D01*
Y126984D01*
X359677D01*
Y124984D01*
G37*
G36*
Y129984D02*X351177D01*
Y131984D01*
X359677D01*
Y129984D01*
G37*
G36*
X330677Y121984D02*X339177D01*
Y119984D01*
X330677D01*
Y121984D01*
G37*
G36*
X359677Y119984D02*X351177D01*
Y121984D01*
X359677D01*
Y119984D01*
G37*
G36*
X331693Y154527D02*Y159645D01*
X324213D01*
Y154527D01*
X331693D01*
G37*
G36*
Y142717D02*Y147835D01*
X324213D01*
Y142717D01*
X331693D01*
G37*
G36*
X330677Y116984D02*X339177D01*
Y114984D01*
X330677D01*
Y116984D01*
G37*
G36*
X359677Y114984D02*X351177D01*
Y116984D01*
X359677D01*
Y114984D01*
G37*
G36*
X335433Y99606D02*X340551D01*
Y107086D01*
X335433D01*
Y99606D01*
G37*
G36*
X323623D02*X328741D01*
Y107086D01*
X323623D01*
Y99606D01*
G37*
G36*
X311417Y256654D02*X304528D01*
Y268465D01*
X311417D01*
Y256654D01*
G37*
G36*
X321417D02*X314528D01*
Y268465D01*
X321417D01*
Y256654D01*
G37*
M02*
