G04 start of page 2 for group 11 layer_idx 11 *
G04 Title: (unknown), bottom_mask *
G04 Creator: pcb-rnd 3.1.4-dev *
G04 CreationDate: 2024-02-06 06:50:58 UTC *
G04 For: STEM4ukraine *
G04 Format: Gerber/RS-274X *
G04 PCB-Dimensions: 393701 393701 *
G04 PCB-Coordinate-Origin: lower left *
%MOIN*%
%FSLAX25Y25*%
%LNBOTTOM_MASK_NONE_11*%
%ADD81C,0.0769*%
%ADD80C,0.0887*%
%ADD79C,0.1595*%
%ADD78C,0.0001*%
%ADD77C,0.0860*%
G54D77*X18110Y27165D02*X12953D01*
G54D78*G36*
X47253Y22865D02*X33453D01*
Y31465D01*
X47253D01*
Y22865D01*
G37*
G36*
X336905Y159945D02*Y154227D01*
X344985D01*
Y159945D01*
X336905D01*
G37*
G36*
X349897Y159945D02*Y154227D01*
X357977D01*
Y159945D01*
X349897D01*
G37*
G36*
X375684Y162889D02*Y169394D01*
X381796D01*
Y162889D01*
X375684D01*
G37*
G36*
X330177Y132484D02*X339677D01*
Y129484D01*
X330177D01*
Y132484D01*
G37*
G36*
X336905Y148135D02*Y142417D01*
X344985D01*
Y148135D01*
X336905D01*
G37*
G36*
X349897Y148135D02*Y142417D01*
X357977D01*
Y148135D01*
X349897D01*
G37*
G36*
X375684Y132180D02*Y138686D01*
X381796D01*
Y132180D01*
X375684D01*
G37*
G36*
X330177Y127484D02*X339677D01*
Y124484D01*
X330177D01*
Y127484D01*
G37*
G36*
X360177Y124484D02*X350677D01*
Y127484D01*
X360177D01*
Y124484D01*
G37*
G36*
Y129484D02*X350677D01*
Y132484D01*
X360177D01*
Y129484D01*
G37*
G36*
X330177Y122484D02*X339677D01*
Y119484D01*
X330177D01*
Y122484D01*
G37*
G36*
X360177Y119484D02*X350677D01*
Y122484D01*
X360177D01*
Y119484D01*
G37*
G36*
X331993Y154227D02*Y159945D01*
X323913D01*
Y154227D01*
X331993D01*
G37*
G36*
Y142417D02*Y148135D01*
X323913D01*
Y142417D01*
X331993D01*
G37*
G36*
X330177Y117484D02*X339677D01*
Y114484D01*
X330177D01*
Y117484D01*
G37*
G36*
X360177Y114484D02*X350677D01*
Y117484D01*
X360177D01*
Y114484D01*
G37*
G36*
X335133Y99306D02*X340851D01*
Y107386D01*
X335133D01*
Y99306D01*
G37*
G36*
X323323D02*X329041D01*
Y107386D01*
X323323D01*
Y99306D01*
G37*
G54D79*X377953Y20079D03*
X330551D03*
G54D80*X349331Y28937D03*
Y16339D03*
X359173D03*
Y28937D03*
G54D78*G36*
X357410Y86802D02*X349598D01*
Y94615D01*
X357410D01*
Y86802D01*
G37*
G54D81*X353504Y80709D03*
X343504D03*
X353504Y70709D03*
X343504D03*
Y90709D03*
G54D78*G36*
X311717Y256354D02*X304228D01*
Y268765D01*
X311717D01*
Y256354D01*
G37*
G36*
X321717D02*X314228D01*
Y268765D01*
X321717D01*
Y256354D01*
G37*
G36*
X390127Y46881D02*X381527D01*
Y55481D01*
X390127D01*
Y46881D01*
G37*
G54D77*X385827Y41181D03*
M02*
