G04 start of page 2 for group 1 layer_idx 8 *
G04 Title: (unknown), top_silk *
G04 Creator: pcb-rnd 3.1.4-dev *
G04 CreationDate: 2024-02-06 06:50:57 UTC *
G04 For: STEM4ukraine *
G04 Format: Gerber/RS-274X *
G04 PCB-Dimensions: 393701 393701 *
G04 PCB-Coordinate-Origin: lower left *
%MOIN*%
%FSLAX25Y25*%
%LNTOP_SILK_NONE_1*%
%ADD61C,0.0140*%
%ADD60C,0.0001*%
G54D60*G36*
X219902Y339980D02*Y338760D01*
X218681D01*
Y339980D01*
X219902D01*
G37*
G36*
X218721Y337618D02*Y336398D01*
X217500D01*
Y337618D01*
X218721D01*
G37*
G36*
X221083D02*Y336398D01*
X219862D01*
Y337618D01*
X221083D01*
G37*
G36*
X225807Y339980D02*Y338760D01*
X221043D01*
Y339980D01*
X225807D01*
G37*
G36*
X229350Y338799D02*Y337579D01*
X225768D01*
Y338799D01*
X229350D01*
G37*
G36*
X223445Y337618D02*Y336398D01*
X222224D01*
Y337618D01*
X223445D01*
G37*
G36*
X225807D02*Y336398D01*
X224587D01*
Y337618D01*
X225807D01*
G37*
G36*
X232894D02*Y336398D01*
X229311D01*
Y337618D01*
X232894D01*
G37*
G36*
X228169Y306909D02*Y305689D01*
X226949D01*
Y306909D01*
X228169D01*
G37*
G36*
X231713Y231319D02*Y230099D01*
X230492D01*
Y231319D01*
X231713D01*
G37*
G36*
X236437Y230138D02*Y228917D01*
X231673D01*
Y230138D01*
X236437D01*
G37*
G36*
X239980D02*Y228917D01*
X238760D01*
Y230138D01*
X239980D01*
G37*
G36*
X248248Y228957D02*Y227736D01*
X232854D01*
Y228957D01*
X248248D01*
G37*
G36*
X257697D02*Y227736D01*
X256476D01*
Y228957D01*
X257697D01*
G37*
G36*
X244705Y227776D02*Y226555D01*
X234036D01*
Y227776D01*
X244705D01*
G37*
G36*
X251791Y226595D02*Y225374D01*
X235217D01*
Y226595D01*
X251791D01*
G37*
G36*
X247067Y227776D02*Y226555D01*
X245847D01*
Y227776D01*
X247067D01*
G37*
G36*
X250610D02*Y226555D01*
X248209D01*
Y227776D01*
X250610D01*
G37*
G36*
X252973D02*Y226555D01*
X251752D01*
Y227776D01*
X252973D01*
G37*
G36*
X255335D02*Y226555D01*
X254114D01*
Y227776D01*
X255335D01*
G37*
G36*
X254154Y226595D02*Y225374D01*
X252933D01*
Y226595D01*
X254154D01*
G37*
G36*
X256516D02*Y225374D01*
X255295D01*
Y226595D01*
X256516D01*
G37*
G36*
X261240D02*Y225374D01*
X257658D01*
Y226595D01*
X261240D01*
G37*
G36*
X265965D02*Y225374D01*
X262382D01*
Y226595D01*
X265965D01*
G37*
G36*
X269508Y225414D02*Y224193D01*
X237579D01*
Y225414D01*
X269508D01*
G37*
G36*
X268327Y224232D02*Y223012D01*
X238760D01*
Y224232D01*
X268327D01*
G37*
G36*
X265965Y223051D02*Y221831D01*
X241122D01*
Y223051D01*
X265965D01*
G37*
G36*
X263602Y221870D02*Y220650D01*
X243484D01*
Y221870D01*
X263602D01*
G37*
G36*
X258878Y220689D02*Y219469D01*
X248209D01*
Y220689D01*
X258878D01*
G37*
G36*
X219902Y336437D02*Y335216D01*
X215138D01*
Y336437D01*
X219902D01*
G37*
G36*
X222264Y335256D02*Y334035D01*
X217500D01*
Y335256D01*
X222264D01*
G37*
G36*
X224626D02*Y334035D01*
X223406D01*
Y335256D01*
X224626D01*
G37*
G36*
Y334075D02*Y332854D01*
X218681D01*
Y334075D01*
X224626D01*
G37*
G36*
X190374Y310453D02*Y309232D01*
X189154D01*
Y310453D01*
X190374D01*
G37*
G36*
X226988Y336437D02*Y335216D01*
X225768D01*
Y336437D01*
X226988D01*
G37*
G36*
Y334075D02*Y332854D01*
X225768D01*
Y334075D01*
X226988D01*
G37*
G36*
X228169Y332894D02*Y331673D01*
X222224D01*
Y332894D01*
X228169D01*
G37*
G36*
X230532D02*Y331673D01*
X229311D01*
Y332894D01*
X230532D01*
G37*
G36*
Y331713D02*Y330492D01*
X224587D01*
Y331713D01*
X230532D01*
G37*
G36*
X232894D02*Y330492D01*
X231673D01*
Y331713D01*
X232894D01*
G37*
G36*
Y330531D02*Y329311D01*
X226949D01*
Y330531D01*
X232894D01*
G37*
G36*
X236437Y329350D02*Y328130D01*
X229311D01*
Y329350D01*
X236437D01*
G37*
G36*
X238799D02*Y328130D01*
X237579D01*
Y329350D01*
X238799D01*
G37*
G36*
Y328169D02*Y326949D01*
X231673D01*
Y328169D01*
X238799D01*
G37*
G36*
X236437Y336437D02*Y335216D01*
X232854D01*
Y336437D01*
X236437D01*
G37*
G36*
Y335256D02*Y334035D01*
X235217D01*
Y335256D01*
X236437D01*
G37*
G36*
X237618Y334075D02*Y332854D01*
X236398D01*
Y334075D01*
X237618D01*
G37*
G36*
X239980Y335256D02*Y334035D01*
X237579D01*
Y335256D01*
X239980D01*
G37*
G36*
Y334075D02*Y332854D01*
X238760D01*
Y334075D01*
X239980D01*
G37*
G36*
X242343D02*Y332854D01*
X241122D01*
Y334075D01*
X242343D01*
G37*
G36*
X241161Y332894D02*Y331673D01*
X239941D01*
Y332894D01*
X241161D01*
G37*
G36*
X243524D02*Y331673D01*
X242303D01*
Y332894D01*
X243524D01*
G37*
G36*
X242343Y330531D02*Y329311D01*
X241122D01*
Y330531D01*
X242343D01*
G37*
G36*
X243524Y329350D02*Y328130D01*
X242303D01*
Y329350D01*
X243524D01*
G37*
G36*
X241161Y328169D02*Y326949D01*
X239941D01*
Y328169D01*
X241161D01*
G37*
G36*
X244705D02*Y326949D01*
X243484D01*
Y328169D01*
X244705D01*
G37*
G36*
X243524Y326988D02*Y325768D01*
X242303D01*
Y326988D01*
X243524D01*
G37*
G36*
X244705Y325807D02*Y324587D01*
X237579D01*
Y325807D01*
X244705D01*
G37*
G36*
X243524Y324626D02*Y323405D01*
X239941D01*
Y324626D01*
X243524D01*
G37*
G36*
Y323445D02*Y322224D01*
X242303D01*
Y323445D01*
X243524D01*
G37*
G36*
X239980Y331713D02*Y330492D01*
X238760D01*
Y331713D01*
X239980D01*
G37*
G36*
X247067D02*Y330492D01*
X242303D01*
Y331713D01*
X247067D01*
G37*
G36*
X245886Y330531D02*Y329311D01*
X244665D01*
Y330531D01*
X245886D01*
G37*
G36*
X248248D02*Y329311D01*
X247028D01*
Y330531D01*
X248248D01*
G37*
G36*
X250610D02*Y329311D01*
X249390D01*
Y330531D01*
X250610D01*
G37*
G36*
X248248Y329350D02*Y328130D01*
X247028D01*
Y329350D01*
X248248D01*
G37*
G36*
X247067Y328169D02*Y326949D01*
X245847D01*
Y328169D01*
X247067D01*
G37*
G36*
X249429D02*Y326949D01*
X248209D01*
Y328169D01*
X249429D01*
G37*
G36*
X248248Y326988D02*Y325768D01*
X245847D01*
Y326988D01*
X248248D01*
G37*
G36*
X250610D02*Y325768D01*
X249390D01*
Y326988D01*
X250610D01*
G37*
G36*
X258878Y291555D02*Y290335D01*
X248209D01*
Y291555D01*
X258878D01*
G37*
G36*
X264784Y290374D02*Y289154D01*
X252933D01*
Y290374D01*
X264784D01*
G37*
G36*
X260059Y289193D02*Y287973D01*
X258839D01*
Y289193D01*
X260059D01*
G37*
G36*
X264784Y288012D02*Y286791D01*
X263563D01*
Y288012D01*
X264784D01*
G37*
G36*
X254154Y284469D02*Y283248D01*
X252933D01*
Y284469D01*
X254154D01*
G37*
G36*
X256516D02*Y283248D01*
X255295D01*
Y284469D01*
X256516D01*
G37*
G36*
X258878D02*Y283248D01*
X257658D01*
Y284469D01*
X258878D01*
G37*
G36*
X262421Y283288D02*Y282067D01*
X261201D01*
Y283288D01*
X262421D01*
G37*
G36*
Y322264D02*Y321043D01*
X260020D01*
Y322264D01*
X262421D01*
G37*
G36*
Y319901D02*Y318681D01*
X261201D01*
Y319901D01*
X262421D01*
G37*
G36*
Y318720D02*Y317500D01*
X261201D01*
Y318720D01*
X262421D01*
G37*
G36*
X261240Y291555D02*Y290335D01*
X260020D01*
Y291555D01*
X261240D01*
G37*
G36*
X264784Y321083D02*Y319862D01*
X262382D01*
Y321083D01*
X264784D01*
G37*
G36*
X267146Y319901D02*Y318681D01*
X263563D01*
Y319901D01*
X267146D01*
G37*
G36*
X264784Y318720D02*Y317500D01*
X263563D01*
Y318720D01*
X264784D01*
G37*
G36*
X267146Y317539D02*Y316319D01*
X260020D01*
Y317539D01*
X267146D01*
G37*
G36*
X270689Y318720D02*Y317500D01*
X267106D01*
Y318720D01*
X270689D01*
G37*
G36*
X269508Y317539D02*Y316319D01*
X268287D01*
Y317539D01*
X269508D01*
G37*
G36*
X274232D02*Y316319D01*
X270650D01*
Y317539D01*
X274232D01*
G37*
G36*
X267146Y316358D02*Y315138D01*
X260020D01*
Y316358D01*
X267146D01*
G37*
G36*
X271870Y315177D02*Y313957D01*
X261201D01*
Y315177D01*
X271870D01*
G37*
G36*
X274232Y313996D02*Y312776D01*
X264744D01*
Y313996D01*
X274232D01*
G37*
G36*
X268327Y289193D02*Y287973D01*
X261201D01*
Y289193D01*
X268327D01*
G37*
G36*
X270689Y288012D02*Y286791D01*
X265925D01*
Y288012D01*
X270689D01*
G37*
G36*
X276595Y313996D02*Y312776D01*
X275374D01*
Y313996D01*
X276595D01*
G37*
G36*
X278957D02*Y312776D01*
X277736D01*
Y313996D01*
X278957D01*
G37*
G36*
X281319D02*Y312776D01*
X280099D01*
Y313996D01*
X281319D01*
G37*
G36*
X283681D02*Y312776D01*
X282461D01*
Y313996D01*
X283681D01*
G37*
G36*
X277776Y312815D02*Y311594D01*
X267106D01*
Y312815D01*
X277776D01*
G37*
G36*
X278957Y311634D02*Y310413D01*
X270650D01*
Y311634D01*
X278957D01*
G37*
G36*
X282500Y310453D02*Y309232D01*
X273012D01*
Y310453D01*
X282500D01*
G37*
G36*
X286043Y309272D02*Y308051D01*
X276555D01*
Y309272D01*
X286043D01*
G37*
G36*
X288406Y308090D02*Y306870D01*
X278917D01*
Y308090D01*
X288406D01*
G37*
G36*
X280138Y312815D02*Y311594D01*
X278917D01*
Y312815D01*
X280138D01*
G37*
G36*
X282500D02*Y311594D01*
X281280D01*
Y312815D01*
X282500D01*
G37*
G36*
X281319Y311634D02*Y310413D01*
X280099D01*
Y311634D01*
X281319D01*
G37*
G36*
X283681D02*Y310413D01*
X282461D01*
Y311634D01*
X283681D01*
G37*
G36*
X284862Y312815D02*Y311594D01*
X283642D01*
Y312815D01*
X284862D01*
G37*
G36*
X286043Y311634D02*Y310413D01*
X284823D01*
Y311634D01*
X286043D01*
G37*
G36*
X284862Y310453D02*Y309232D01*
X283642D01*
Y310453D01*
X284862D01*
G37*
G36*
X287225Y312815D02*Y311594D01*
X286004D01*
Y312815D01*
X287225D01*
G37*
G36*
X288406Y311634D02*Y310413D01*
X287185D01*
Y311634D01*
X288406D01*
G37*
G36*
X287225Y310453D02*Y309232D01*
X286004D01*
Y310453D01*
X287225D01*
G37*
G36*
X289587D02*Y309232D01*
X288366D01*
Y310453D01*
X289587D01*
G37*
G36*
X291949D02*Y309232D01*
X290728D01*
Y310453D01*
X291949D01*
G37*
G36*
X288406Y309272D02*Y308051D01*
X287185D01*
Y309272D01*
X288406D01*
G37*
G36*
X290768D02*Y308051D01*
X289547D01*
Y309272D01*
X290768D01*
G37*
G36*
Y308090D02*Y306870D01*
X289547D01*
Y308090D01*
X290768D01*
G37*
G36*
X293130Y306909D02*Y305689D01*
X282461D01*
Y306909D01*
X293130D01*
G37*
G36*
X294311Y305728D02*Y304508D01*
X284823D01*
Y305728D01*
X294311D01*
G37*
G36*
X293130Y309272D02*Y308051D01*
X291910D01*
Y309272D01*
X293130D01*
G37*
G36*
X294311Y308090D02*Y306870D01*
X293091D01*
Y308090D01*
X294311D01*
G37*
G36*
X295492Y306909D02*Y305689D01*
X294272D01*
Y306909D01*
X295492D01*
G37*
G36*
X296673Y308090D02*Y306870D01*
X295453D01*
Y308090D01*
X296673D01*
G37*
G36*
X297854Y306909D02*Y305689D01*
X296634D01*
Y306909D01*
X297854D01*
G37*
G36*
X300217D02*Y305689D01*
X298996D01*
Y306909D01*
X300217D01*
G37*
G36*
X301398Y305728D02*Y304508D01*
X300177D01*
Y305728D01*
X301398D01*
G37*
G36*
X297854Y304547D02*Y303327D01*
X288366D01*
Y304547D01*
X297854D01*
G37*
G36*
Y303366D02*Y302146D01*
X290728D01*
Y303366D01*
X297854D01*
G37*
G36*
X299036Y302185D02*Y300964D01*
X294272D01*
Y302185D01*
X299036D01*
G37*
G36*
X300217Y304547D02*Y303327D01*
X298996D01*
Y304547D01*
X300217D01*
G37*
G36*
Y303366D02*Y302146D01*
X298996D01*
Y303366D01*
X300217D01*
G37*
G36*
X301398Y302185D02*Y300964D01*
X300177D01*
Y302185D01*
X301398D01*
G37*
G36*
X303760Y301004D02*Y299783D01*
X298996D01*
Y301004D01*
X303760D01*
G37*
G36*
X304941Y299823D02*Y298602D01*
X302539D01*
Y299823D01*
X304941D01*
G37*
G36*
X302579Y304547D02*Y303327D01*
X301358D01*
Y304547D01*
X302579D01*
G37*
G36*
X303760Y303366D02*Y302146D01*
X302539D01*
Y303366D01*
X303760D01*
G37*
G36*
X304941Y304547D02*Y303327D01*
X303721D01*
Y304547D01*
X304941D01*
G37*
G36*
X306122Y303366D02*Y302146D01*
X304902D01*
Y303366D01*
X306122D01*
G37*
G36*
Y302185D02*Y300964D01*
X304902D01*
Y302185D01*
X306122D01*
G37*
G36*
X308484Y303366D02*Y302146D01*
X307264D01*
Y303366D01*
X308484D01*
G37*
G36*
X309665Y302185D02*Y300964D01*
X308445D01*
Y302185D01*
X309665D01*
G37*
G36*
X307303Y301004D02*Y299783D01*
X306083D01*
Y301004D01*
X307303D01*
G37*
G36*
X310847D02*Y299783D01*
X309626D01*
Y301004D01*
X310847D01*
G37*
G36*
X313209D02*Y299783D01*
X311988D01*
Y301004D01*
X313209D01*
G37*
G36*
Y298642D02*Y297421D01*
X311988D01*
Y298642D01*
X313209D01*
G37*
G36*
X307303Y299823D02*Y298602D01*
X306083D01*
Y299823D01*
X307303D01*
G37*
G36*
X308484Y298642D02*Y297421D01*
X306083D01*
Y298642D01*
X308484D01*
G37*
G36*
X309665Y299823D02*Y298602D01*
X308445D01*
Y299823D01*
X309665D01*
G37*
G36*
X310847Y298642D02*Y297421D01*
X309626D01*
Y298642D01*
X310847D01*
G37*
G36*
X312028Y297461D02*Y296240D01*
X308445D01*
Y297461D01*
X312028D01*
G37*
G36*
X314390Y299823D02*Y298602D01*
X313169D01*
Y299823D01*
X314390D01*
G37*
G36*
X316752D02*Y298602D01*
X315532D01*
Y299823D01*
X316752D01*
G37*
G36*
X314390Y297461D02*Y296240D01*
X313169D01*
Y297461D01*
X314390D01*
G37*
G36*
X317933Y296279D02*Y295059D01*
X311988D01*
Y296279D01*
X317933D01*
G37*
G36*
X316752Y295098D02*Y293878D01*
X315532D01*
Y295098D01*
X316752D01*
G37*
G36*
X317933Y298642D02*Y297421D01*
X316713D01*
Y298642D01*
X317933D01*
G37*
G36*
X320295Y297461D02*Y296240D01*
X319075D01*
Y297461D01*
X320295D01*
G37*
G36*
X319114Y295098D02*Y293878D01*
X317894D01*
Y295098D01*
X319114D01*
G37*
G36*
X321477D02*Y293878D01*
X320256D01*
Y295098D01*
X321477D01*
G37*
G36*
X322658Y292736D02*Y291516D01*
X321437D01*
Y292736D01*
X322658D01*
G37*
G36*
X320295Y293917D02*Y292697D01*
X317894D01*
Y293917D01*
X320295D01*
G37*
G36*
X323839D02*Y292697D01*
X321437D01*
Y293917D01*
X323839D01*
G37*
G36*
X326201D02*Y292697D01*
X324980D01*
Y293917D01*
X326201D01*
G37*
G36*
X325020Y292736D02*Y291516D01*
X323799D01*
Y292736D01*
X325020D01*
G37*
G36*
X328563Y293917D02*Y292697D01*
X327343D01*
Y293917D01*
X328563D01*
G37*
G36*
X332106Y292736D02*Y291516D01*
X330886D01*
Y292736D01*
X332106D01*
G37*
G36*
X329744Y291555D02*Y290335D01*
X323799D01*
Y291555D01*
X329744D01*
G37*
G36*
X328563Y290374D02*Y289154D01*
X327343D01*
Y290374D01*
X328563D01*
G37*
G36*
X332106D02*Y289154D01*
X329705D01*
Y290374D01*
X332106D01*
G37*
G36*
X334469D02*Y289154D01*
X333248D01*
Y290374D01*
X334469D01*
G37*
G36*
X338012D02*Y289154D01*
X336791D01*
Y290374D01*
X338012D01*
G37*
G36*
X334469Y289193D02*Y287973D01*
X329705D01*
Y289193D01*
X334469D01*
G37*
G36*
X336831D02*Y287973D01*
X335610D01*
Y289193D01*
X336831D01*
G37*
G36*
Y288012D02*Y286791D01*
X334429D01*
Y288012D01*
X336831D01*
G37*
G36*
X339193D02*Y286791D01*
X337973D01*
Y288012D01*
X339193D01*
G37*
G36*
Y286831D02*Y285610D01*
X335610D01*
Y286831D01*
X339193D01*
G37*
G36*
X342736Y285650D02*Y284429D01*
X341516D01*
Y285650D01*
X342736D01*
G37*
G36*
X269508Y316358D02*Y315138D01*
X268287D01*
Y316358D01*
X269508D01*
G37*
G36*
Y286831D02*Y285610D01*
X268287D01*
Y286831D01*
X269508D01*
G37*
G36*
X271870Y316358D02*Y315138D01*
X270650D01*
Y316358D01*
X271870D01*
G37*
G36*
X273051Y286831D02*Y285610D01*
X270650D01*
Y286831D01*
X273051D01*
G37*
G36*
X274232Y285650D02*Y284429D01*
X273012D01*
Y285650D01*
X274232D01*
G37*
G36*
X275413Y284469D02*Y283248D01*
X274193D01*
Y284469D01*
X275413D01*
G37*
G36*
X277776Y283288D02*Y282067D01*
X276555D01*
Y283288D01*
X277776D01*
G37*
G36*
X276595Y316358D02*Y315138D01*
X273012D01*
Y316358D01*
X276595D01*
G37*
G36*
X274232Y315177D02*Y313957D01*
X273012D01*
Y315177D01*
X274232D01*
G37*
G36*
X276595D02*Y313957D01*
X275374D01*
Y315177D01*
X276595D01*
G37*
G36*
X278957D02*Y313957D01*
X277736D01*
Y315177D01*
X278957D01*
G37*
G36*
X281319D02*Y313957D01*
X280099D01*
Y315177D01*
X281319D01*
G37*
G36*
X235256Y330531D02*Y329311D01*
X234036D01*
Y330531D01*
X235256D01*
G37*
G36*
X241161Y326988D02*Y325768D01*
X235217D01*
Y326988D01*
X241161D01*
G37*
G36*
X328563Y387224D02*Y386004D01*
X326162D01*
Y387224D01*
X328563D01*
G37*
G36*
X330925Y386043D02*Y384823D01*
X328524D01*
Y386043D01*
X330925D01*
G37*
G36*
Y384862D02*Y383642D01*
X329705D01*
Y384862D01*
X330925D01*
G37*
G36*
X332106Y334075D02*Y332854D01*
X328524D01*
Y334075D01*
X332106D01*
G37*
G36*
X330925Y332894D02*Y331673D01*
X329705D01*
Y332894D01*
X330925D01*
G37*
G36*
X333288D02*Y331673D01*
X332067D01*
Y332894D01*
X333288D01*
G37*
G54D61*X190900Y16486D02*X188956Y15838D01*
X187660Y14542D01*
X187008Y12598D01*
Y11302D01*
X187660Y9358D01*
X188956Y8058D01*
X190900Y7410D01*
X192196D01*
X194140Y8058D01*
X195436Y9358D01*
X196088Y11302D01*
Y12598D01*
X195436Y14542D01*
X194140Y15838D01*
X192196Y16486D01*
X190900D01*
X189604Y15838D01*
X188308Y14542D01*
X187660Y12598D01*
Y11302D01*
X188308Y9358D01*
X189604Y8058D01*
X190900Y7410D01*
X192196D02*X193492Y8058D01*
X194788Y9358D01*
X195436Y11302D01*
Y12598D01*
X194788Y14542D01*
X193492Y15838D01*
X192196Y16486D01*
X204520D02*Y7410D01*
X205168Y16486D02*Y7410D01*
X211648Y16486D02*Y7410D01*
X212296Y16486D02*Y7410D01*
X202572Y16486D02*X214244D01*
X202572Y7410D02*X207112D01*
X209704D02*X214244D01*
X222028Y12598D02*X229804D01*
Y13894D01*
X229156Y15190D01*
X228508Y15838D01*
X227212Y16486D01*
X225268D01*
X223324Y15838D01*
X222028Y14542D01*
X221376Y12598D01*
Y11302D01*
X222028Y9358D01*
X223324Y8058D01*
X225268Y7410D01*
X226564D01*
X228508Y8058D01*
X229804Y9358D01*
X229156Y12598D02*Y14542D01*
X228508Y15838D01*
X225268Y16486D02*X223972Y15838D01*
X222676Y14542D01*
X222028Y12598D01*
Y11302D01*
X222676Y9358D01*
X223972Y8058D01*
X225268Y7410D01*
X238236Y16486D02*Y2870D01*
X238884Y16486D02*Y2870D01*
Y14542D02*X240180Y15838D01*
X241476Y16486D01*
X242772D01*
X244716Y15838D01*
X246012Y14542D01*
X246664Y12598D01*
Y11302D01*
X246012Y9358D01*
X244716Y8058D01*
X242772Y7410D01*
X241476D01*
X240180Y8058D01*
X238884Y9358D01*
X242772Y16486D02*X244068Y15838D01*
X245364Y14542D01*
X246012Y12598D01*
Y11302D01*
X245364Y9358D01*
X244068Y8058D01*
X242772Y7410D01*
X236288Y16486D02*X238884D01*
X236288Y2870D02*X240828D01*
X255092Y15190D02*Y14542D01*
X254444D01*
Y15190D01*
X255092Y15838D01*
X256388Y16486D01*
X258980D01*
X260276Y15838D01*
X260924Y15190D01*
X261572Y13894D01*
Y9358D01*
X262224Y8058D01*
X262872Y7410D01*
X260924Y15190D02*Y9358D01*
X261572Y8058D01*
X262872Y7410D01*
X263520D01*
X260924Y13894D02*X260276Y13246D01*
X256388Y12598D01*
X254444Y11950D01*
X253796Y10654D01*
Y9358D01*
X254444Y8058D01*
X256388Y7410D01*
X258332D01*
X259628Y8058D01*
X260924Y9358D01*
X256388Y12598D02*X255092Y11950D01*
X254444Y10654D01*
Y9358D01*
X255092Y8058D01*
X256388Y7410D01*
X271304Y16486D02*Y7410D01*
X271952Y16486D02*Y7410D01*
X278432Y16486D02*Y7410D01*
X279080Y16486D02*Y7410D01*
X269356Y16486D02*X273896D01*
X276488D02*X281028D01*
X269356Y7410D02*X281028D01*
Y4166D01*
X280380Y7410D01*
X290108Y16486D02*Y7410D01*
X290756Y16486D02*Y7410D01*
X297236Y16486D02*Y7410D01*
X297884Y16486D02*Y7410D01*
X288160Y16486D02*X292700D01*
X295292D02*X299832D01*
X288160Y7410D02*X292700D01*
X295292D02*X299832D01*
X297236Y15838D02*X290756Y8058D01*
X308912Y16486D02*Y7410D01*
X309560Y16486D02*Y7410D01*
X316040Y16486D02*Y7410D01*
X316688Y16486D02*Y7410D01*
X306964Y16486D02*X311504D01*
X314096D02*X318636D01*
X306964Y7410D02*X311504D01*
X314096D02*X318636D01*
X316040Y15838D02*X309560Y8058D01*
X109158Y33243D02*X108510Y32595D01*
X109158Y31947D01*
X109806Y32595D01*
Y33243D01*
X108510Y34539D01*
X107214Y35187D01*
X105270D01*
X103326Y34539D01*
X102030Y33243D01*
X101378Y31299D01*
Y30003D01*
X102030Y28059D01*
X103326Y26759D01*
X105270Y26111D01*
X106566D01*
X108510Y26759D01*
X109806Y28059D01*
X105270Y35187D02*X103974Y34539D01*
X102678Y33243D01*
X102030Y31299D01*
Y30003D01*
X102678Y28059D01*
X103974Y26759D01*
X105270Y26111D01*
X118238Y35187D02*Y26111D01*
X118886Y35187D02*Y26111D01*
X125366Y35187D02*Y26111D01*
X126014Y35187D02*Y26111D01*
X116290Y35187D02*X127962D01*
X116290Y26111D02*X120830D01*
X123422D02*X127962D01*
X135746Y31299D02*X143522D01*
Y32595D01*
X142874Y33891D01*
X142226Y34539D01*
X140930Y35187D01*
X138986D01*
X137042Y34539D01*
X135746Y33243D01*
X135094Y31299D01*
Y30003D01*
X135746Y28059D01*
X137042Y26759D01*
X138986Y26111D01*
X140282D01*
X142226Y26759D01*
X143522Y28059D01*
X142874Y31299D02*Y33243D01*
X142226Y34539D01*
X138986Y35187D02*X137690Y34539D01*
X136394Y33243D01*
X135746Y31299D01*
Y30003D01*
X136394Y28059D01*
X137690Y26759D01*
X138986Y26111D01*
X151954Y35187D02*Y26111D01*
X152602Y35187D02*Y26111D01*
X159082Y35187D02*Y26111D01*
X159730Y35187D02*Y26111D01*
X150006Y35187D02*X154546D01*
X157138D02*X161678D01*
X150006Y26111D02*X161678D01*
Y22867D01*
X161030Y26111D01*
X170758Y35187D02*Y26111D01*
X171406Y35187D02*Y26111D01*
X177886Y35187D02*Y26111D01*
X178534Y35187D02*Y26111D01*
X168810Y35187D02*X173350D01*
X175942D02*X180482D01*
X168810Y26111D02*X173350D01*
X175942D02*X180482D01*
X177886Y34539D02*X171406Y26759D01*
X188910Y33891D02*Y33243D01*
X188262D01*
Y33891D01*
X188910Y34539D01*
X190206Y35187D01*
X192798D01*
X194094Y34539D01*
X194742Y33891D01*
X195390Y32595D01*
Y28059D01*
X196042Y26759D01*
X196690Y26111D01*
X194742Y33891D02*Y28059D01*
X195390Y26759D01*
X196690Y26111D01*
X197338D01*
X194742Y32595D02*X194094Y31947D01*
X190206Y31299D01*
X188262Y30651D01*
X187614Y29355D01*
Y28059D01*
X188262Y26759D01*
X190206Y26111D01*
X192150D01*
X193446Y26759D01*
X194742Y28059D01*
X190206Y31299D02*X188910Y30651D01*
X188262Y29355D01*
Y28059D01*
X188910Y26759D01*
X190206Y26111D01*
X206418Y35187D02*Y32595D01*
X205770Y28707D01*
X205122Y26759D01*
X204470Y26111D01*
X203822D01*
X203174Y26759D01*
X203822Y27407D01*
X204470Y26759D01*
X212250Y35187D02*Y26111D01*
X212898Y35187D02*Y26111D01*
X204470Y35187D02*X214846D01*
X210306Y26111D02*X214846D01*
X223922Y35187D02*Y26111D01*
X224570Y35187D02*Y26111D01*
X221978Y35187D02*X226514D01*
X224570Y30651D02*X227162D01*
X229106Y30003D01*
X229754Y28707D01*
Y28059D01*
X229106Y26759D01*
X227162Y26111D01*
X221978D01*
X227162Y30651D02*X228458Y30003D01*
X229106Y28707D01*
Y28059D01*
X228458Y26759D01*
X227162Y26111D01*
X236890Y35187D02*Y26111D01*
X237538Y35187D02*Y26111D01*
X244018Y35187D02*Y26111D01*
X244666Y35187D02*Y26111D01*
X234942Y35187D02*X239482D01*
X242074D02*X246614D01*
X237538Y30651D02*X244018D01*
X234942Y26111D02*X239482D01*
X242074D02*X246614D01*
X257638Y35187D02*X255694Y34539D01*
X254398Y33243D01*
X253746Y31299D01*
Y30003D01*
X254398Y28059D01*
X255694Y26759D01*
X257638Y26111D01*
X258934D01*
X260878Y26759D01*
X262174Y28059D01*
X262826Y30003D01*
Y31299D01*
X262174Y33243D01*
X260878Y34539D01*
X258934Y35187D01*
X257638D01*
X256342Y34539D01*
X255046Y33243D01*
X254398Y31299D01*
Y30003D01*
X255046Y28059D01*
X256342Y26759D01*
X257638Y26111D01*
X258934D02*X260230Y26759D01*
X261526Y28059D01*
X262174Y30003D01*
Y31299D01*
X261526Y33243D01*
X260230Y34539D01*
X258934Y35187D01*
X271258D02*Y26111D01*
X271906Y35187D02*Y26111D01*
X278386Y35187D02*Y26111D01*
X279034Y35187D02*Y26111D01*
X269310Y35187D02*X273850D01*
X276442D02*X280982D01*
X269310Y26111D02*X273850D01*
X276442D02*X280982D01*
X278386Y34539D02*X271906Y26759D01*
X273202Y39079D02*Y39727D01*
X272554D01*
Y39079D01*
X273202Y37783D01*
X274498Y37135D01*
X275794D01*
X277090Y37783D01*
X277738Y39079D01*
X62972Y16486D02*Y7410D01*
X63620Y16486D02*Y7410D01*
X61024Y16486D02*X68156D01*
X70100Y15838D01*
X70752Y14542D01*
Y13894D01*
X70100Y12598D01*
X68156Y11950D01*
Y16486D02*X69452Y15838D01*
X70100Y14542D01*
Y13894D01*
X69452Y12598D01*
X68156Y11950D01*
X63620D02*X68156D01*
X70100Y11302D01*
X70752Y10006D01*
Y9358D01*
X70100Y8058D01*
X68156Y7410D01*
X61024D01*
X68156Y11950D02*X69452Y11302D01*
X70100Y10006D01*
Y9358D01*
X69452Y8058D01*
X68156Y7410D01*
X81128Y16486D02*X79184Y15838D01*
X77888Y14542D01*
X77236Y12598D01*
Y11302D01*
X77888Y9358D01*
X79184Y8058D01*
X81128Y7410D01*
X82424D01*
X84368Y8058D01*
X85664Y9358D01*
X86316Y11302D01*
Y12598D01*
X85664Y14542D01*
X84368Y15838D01*
X82424Y16486D01*
X81128D01*
X79832Y15838D01*
X78536Y14542D01*
X77888Y12598D01*
Y11302D01*
X78536Y9358D01*
X79832Y8058D01*
X81128Y7410D01*
X82424D02*X83720Y8058D01*
X85016Y9358D01*
X85664Y11302D01*
Y12598D01*
X85016Y14542D01*
X83720Y15838D01*
X82424Y16486D01*
X93452Y12598D02*X101228D01*
Y13894D01*
X100580Y15190D01*
X99932Y15838D01*
X98636Y16486D01*
X96692D01*
X94748Y15838D01*
X93452Y14542D01*
X92800Y12598D01*
Y11302D01*
X93452Y9358D01*
X94748Y8058D01*
X96692Y7410D01*
X97988D01*
X99932Y8058D01*
X101228Y9358D01*
X100580Y12598D02*Y14542D01*
X99932Y15838D01*
X96692Y16486D02*X95396Y15838D01*
X94100Y14542D01*
X93452Y12598D01*
Y11302D01*
X94100Y9358D01*
X95396Y8058D01*
X96692Y7410D01*
X109660Y16486D02*Y7410D01*
X110308Y16486D02*Y7410D01*
X116788Y16486D02*Y7410D01*
X117436Y16486D02*Y7410D01*
X107712Y16486D02*X112252D01*
X114844D02*X119384D01*
X110308Y11950D02*X116788D01*
X107712Y7410D02*X112252D01*
X114844D02*X119384D01*
X128464Y16486D02*Y7410D01*
X129112Y16486D02*Y7410D01*
X135592Y16486D02*Y7410D01*
X136240Y16486D02*Y7410D01*
X126516Y16486D02*X131056D01*
X133648D02*X138188D01*
X129112Y11950D02*X135592D01*
X126516Y7410D02*X131056D01*
X133648D02*X138188D01*
X149212Y16486D02*X147268Y15838D01*
X145972Y14542D01*
X145320Y12598D01*
Y11302D01*
X145972Y9358D01*
X147268Y8058D01*
X149212Y7410D01*
X150508D01*
X152452Y8058D01*
X153748Y9358D01*
X154400Y11302D01*
Y12598D01*
X153748Y14542D01*
X152452Y15838D01*
X150508Y16486D01*
X149212D01*
X147916Y15838D01*
X146620Y14542D01*
X145972Y12598D01*
Y11302D01*
X146620Y9358D01*
X147916Y8058D01*
X149212Y7410D01*
X150508D02*X151804Y8058D01*
X153100Y9358D01*
X153748Y11302D01*
Y12598D01*
X153100Y14542D01*
X151804Y15838D01*
X150508Y16486D01*
X162832D02*Y7410D01*
X163480Y16486D02*Y7410D01*
X169960Y16486D02*Y7410D01*
X170608Y16486D02*Y7410D01*
X160884Y16486D02*X165424D01*
X168016D02*X172556D01*
X160884Y7410D02*X165424D01*
X168016D02*X172556D01*
X169960Y15838D02*X163480Y8058D01*
X164776Y20378D02*Y21026D01*
X164128D01*
Y20378D01*
X164776Y19082D01*
X166072Y18434D01*
X167368D01*
X168664Y19082D01*
X169312Y20378D01*
M02*
